<svg version="1.1" xmlns="http://www.w3.org/2000/svg" xmlns:xlink="http://www.w3.org/1999/xlink" width="190" height="190" viewBox="0,0,190,190"><defs><radialGradient cx="239.9988" cy="179.9994" r="94.9994" gradientUnits="userSpaceOnUse" id="color-1"><stop offset="0" stop-color="#ff0000" stop-opacity="0"/><stop offset="0.1" stop-color="#ff0000" stop-opacity="0.05882"/><stop offset="0.2" stop-color="#ff0000" stop-opacity="0.25098"/><stop offset="0.3" stop-color="#ff0000" stop-opacity="0.56078"/><stop offset="0.4" stop-color="#ff0000"/><stop offset="0.55" stop-color="#ff0000"/><stop offset="0.7" stop-color="#ff0000" stop-opacity="0.56078"/><stop offset="0.8" stop-color="#ff0000" stop-opacity="0.25098"/><stop offset="0.9" stop-color="#ff0000" stop-opacity="0.05882"/><stop offset="1" stop-color="#ff0000" stop-opacity="0"/></radialGradient></defs><g transform="translate(-145,-85)"><g stroke-miterlimit="10"><path d="M170,250v-140h140v140z" fill="none" fill-rule="nonzero" stroke="none" stroke-width="1" stroke-linecap="butt" stroke-linejoin="miter"/><path d="M145,180c0,-52.46705 42.53295,-95 95,-95c52.46705,0 95,42.53295 95,95c0,52.46705 -42.53295,95 -95,95c-52.46705,0 -95,-42.53295 -95,-95z" fill="url(#color-1)" fill-rule="evenodd" stroke="none" stroke-width="1" stroke-linecap="butt" stroke-linejoin="miter" opacity="0.25"/><path d="M191,180c0,-27.06196 21.93804,-49 49,-49c27.06196,0 49,21.93804 49,49c0,27.06196 -21.93804,49 -49,49c-27.06196,0 -49,-21.93804 -49,-49z" fill="none" fill-rule="nonzero" stroke="#ffffff" stroke-width="12" stroke-linecap="round" stroke-linejoin="round"/></g></g></svg>