<svg version="1.1" xmlns="http://www.w3.org/2000/svg" xmlns:xlink="http://www.w3.org/1999/xlink" width="180" height="40" viewBox="0,0,180,40"><g transform="translate(-150,-160)"><g stroke="none" stroke-miterlimit="10"><path d="M150,160h180v40h-180z" fill="none" stroke-width="0.2" stroke-linecap="round" stroke-linejoin="round"/><g fill="#ffffff" stroke-width="1" stroke-linecap="butt" stroke-linejoin="miter"><path d="M170.91463,174.752h10.712l0.88184,0.74512c-0.25521,0.95247 -0.58789,1.7477 -0.99805,2.3857c-0.7702,1.20767 -1.9232,2.11 -3.459,2.707l-0.86133,-1.1758c1.06187,-0.31901 1.9437,-0.89095 2.6455,-1.7158c0.41471,-0.48763 0.7041,-1.00259 0.86816,-1.5449h-9.7891zM175.29643,177.7051h1.5654v1.1758c0,1.76367 -0.19596,3.1263 -0.58789,4.0879c-0.49675,1.22133 -1.46288,2.21483 -2.8984,2.9805l-1.1279,-1.1895c0.98893,-0.4694 1.71127,-1.02993 2.167,-1.6816c0.35091,-0.50586 0.58106,-1.04133 0.69043,-1.6064c0.12761,-0.64713 0.19141,-1.5153 0.19141,-2.6045z"/><path d="M188.87263,186.045v-7.0137c-1.3854,0.92967 -2.96677,1.71353 -4.7441,2.3516l-0.82715,-1.3877c2.01887,-0.67907 3.78937,-1.55407 5.3115,-2.625c1.4948,-1.05273 2.82553,-2.25813 3.9922,-3.6162l1.3193,0.82715c-1.03453,1.18947 -2.18753,2.28093 -3.459,3.2744v8.1895z"/><path d="M195.51063,174.929h10.008v10.35h-10.247v-1.4287h8.6201v-7.4922h-8.3809z"/><path d="M212.90763,177.452c-1.44013,-0.64258 -2.9372,-1.15755 -4.4912,-1.5449l0.47852,-1.4697c1.80013,0.41015 3.31087,0.92055 4.5322,1.5312zM208.58733,184.2538c2.25587,-0.19141 3.98307,-0.59474 5.1816,-1.21c1.41273,-0.7292 2.49737,-1.848 3.2539,-3.3564c0.49219,-0.97527 0.89095,-2.2513 1.1963,-3.8281l1.3125,0.96387c-0.36914,1.6862 -0.81574,3.02603 -1.3398,4.0195c-0.94793,1.80927 -2.39717,3.1195 -4.3477,3.9307c-1.23047,0.51041 -2.87563,0.87501 -4.9355,1.0938z"/><path d="M227.91963,184.575c2.67513,-0.67447 4.0127,-2.208 4.0127,-4.6006c0,-1.0436 -0.26888,-1.9414 -0.80664,-2.6934c-0.60156,-0.84767 -1.51756,-1.39227 -2.748,-1.6338c-0.26888,2.1146 -0.63575,3.84637 -1.1006,5.1953c-0.31901,0.94333 -0.71551,1.8343 -1.1895,2.6729c-0.6836,1.194 -1.46063,1.791 -2.3311,1.791c-0.64713,0 -1.22363,-0.29167 -1.7295,-0.875c-0.32357,-0.36914 -0.58561,-0.82261 -0.78613,-1.3604c-0.26432,-0.69727 -0.39648,-1.44693 -0.39648,-2.249c0,-1.2988 0.35773,-2.4951 1.0732,-3.5889c0.7246,-1.11653 1.66567,-1.92773 2.8232,-2.4336c0.84307,-0.36914 1.7682,-0.55371 2.7754,-0.55371c1.57227,0 2.90757,0.42153 4.0059,1.2646c1.34893,1.03453 2.0234,2.4997 2.0234,4.3955c0,3.1764 -1.60643,5.19073 -4.8193,6.043zM226.89423,175.5926c-0.80667,0.09115 -1.48113,0.30762 -2.0234,0.64942c-0.34635,0.22331 -0.69042,0.51953 -1.0322,0.88867c-0.94793,1.0482 -1.4219,2.26273 -1.4219,3.6436c0,1.00713 0.20052,1.79553 0.60156,2.3652c0.24609,0.35091 0.48991,0.52637 0.73144,0.52637c0.32813,0 0.69726,-0.3623 1.1074,-1.0869c1.0026,-1.76367 1.68163,-4.09243 2.0371,-6.9863z"/><path d="M236.32063,174.328h5.3457l0.95703,0.81348c-0.45117,1.5814 -0.82487,2.77087 -1.1211,3.5684c1.13473,0.19141 2.18063,0.5013 3.1377,0.92969c0.05469,-0.58789 0.08203,-1.16439 0.08203,-1.7295c0,-0.30078 -0.00911,-0.65398 -0.02734,-1.0596l1.4971,0.15723c-0.00453,1.3034 -0.05694,2.39943 -0.15723,3.2881c0.56511,0.29167 1.15754,0.63573 1.7773,1.0322l-0.58789,1.4561c-0.4375,-0.31901 -0.91147,-0.63575 -1.4219,-0.9502c-0.35091,1.35353 -0.91145,2.40627 -1.6816,3.1582c-0.54687,0.53776 -1.29427,1.01173 -2.2422,1.4219l-0.85449,-1.1484c1.11653,-0.47851 1.9414,-1.08918 2.4746,-1.832c0.41927,-0.59245 0.72917,-1.36718 0.92969,-2.3242c-1.11653,-0.56055 -2.24673,-0.93881 -3.3906,-1.1348c-0.74287,2.03253 -1.488,3.5729 -2.2354,4.6211c-0.56966,0.793 -1.20996,1.1895 -1.9209,1.1895c-0.68813,0 -1.22133,-0.32813 -1.5996,-0.98438c-0.28711,-0.5013 -0.43066,-1.0983 -0.43066,-1.791c0,-0.8568 0.22103,-1.62243 0.66308,-2.2969c0.52409,-0.80207 1.33072,-1.38767 2.4199,-1.7568c0.62891,-0.20963 1.33301,-0.32357 2.1123,-0.3418c0.41927,-1.09373 0.74056,-2.07357 0.96387,-2.9395h-4.6895zM239.55403,179.9198c-0.58789,0.0319 -1.09146,0.14355 -1.5107,0.33496c-0.65625,0.29167 -1.13932,0.73827 -1.4492,1.3398c-0.21875,0.42383 -0.32812,0.87499 -0.32812,1.3535c0,0.38281 0.0752,0.7155 0.22559,0.99805c0.11393,0.22331 0.25065,0.33496 0.41016,0.33496c0.63802,0 1.52212,-1.45377 2.6523,-4.3613z"/></g><text transform="translate(249.7169,184.3999) scale(0.27432,0.27432)" font-size="40" xml:space="preserve" fill="#ffffff" stroke-width="1" stroke-linecap="butt" stroke-linejoin="miter" font-family="&quot;BIZ UDGothic&quot;" font-weight="normal" text-anchor="start"><tspan x="0" dy="0">(使用不可)</tspan></text></g></g></svg>