<svg version="1.1" xmlns="http://www.w3.org/2000/svg" xmlns:xlink="http://www.w3.org/1999/xlink" width="168.1" height="21.8398" viewBox="0,0,168.1,21.8398"><g transform="translate(-240,-180)"><g stroke="none" stroke-miterlimit="10"><path d="M248,180h152.1c4.432,0 8,3.568 8,8v5.8398c0,4.432 -3.568,8 -8,8h-152.1c-4.432,0 -8,-3.568 -8,-8v-5.8398c0,-4.432 3.568,-8 8,-8z" fill-opacity="0.7" fill="#000000" fill-rule="evenodd" stroke-width="0"/><path d="M251.64956,187.09181v1.15743c0,1.09063 0.27675,2.13217 0.83024,3.12464c0.61621,1.10426 1.51461,1.98357 2.69521,2.63795l-0.56849,0.87932c-0.88341,-0.54531 -1.6523,-1.26649 -2.30667,-2.16353c-0.45806,-0.62711 -0.81524,-1.33737 -1.07154,-2.13081c-0.53168,1.94404 -1.64276,3.3973 -3.33323,4.35977l-0.62574,-0.77707c1.14789,-0.54804 2.02993,-1.40282 2.64613,-2.56433c0.50169,-0.94884 0.75253,-2.05174 0.75253,-3.30869v-1.21468zM255.75986,188.81773h1.80771c0.0818,-0.41989 0.17314,-0.94203 0.27402,-1.56642l0.02045,-0.11861l0.89567,0.13496c-0.09271,0.57803 -0.18814,1.09471 -0.28629,1.55005h0.49487c0.65438,0 1.12335,0.14724 1.40691,0.44171c0.25357,0.26447 0.38035,0.67619 0.38035,1.23513c0,0.94067 -0.09952,1.81998 -0.29856,2.63795c-0.11451,0.46352 -0.25357,0.8057 -0.41716,1.02655c-0.20722,0.27538 -0.49488,0.41307 -0.86296,0.41307c-0.44171,0 -0.92431,-0.14178 -1.4478,-0.42535l0.10225,-0.86295c0.51805,0.24812 0.92021,0.37218 1.2065,0.37218c0.14996,0 0.26584,-0.08044 0.34764,-0.2413c0.08725,-0.1745 0.17041,-0.42671 0.24948,-0.75662c0.15542,-0.66801 0.23312,-1.3701 0.23312,-2.10627c0,-0.38717 -0.07771,-0.63802 -0.23312,-0.75253c-0.1336,-0.09543 -0.37218,-0.14314 -0.71572,-0.14314h-0.62983c-0.43352,1.93041 -1.05518,3.57725 -1.86497,4.94053l-0.82206,-0.44988c0.83705,-1.40418 1.43417,-2.90107 1.79135,-4.49066h-1.63185zM262.55309,192.8544c-0.30811,-1.13425 -0.79479,-2.24805 -1.46008,-3.3414l0.79752,-0.35991c0.68709,1.09608 1.20105,2.19898 1.54187,3.30869zM261.9478,188.93633c-0.16905,-0.44171 -0.44171,-0.93249 -0.81797,-1.47235l0.63393,-0.23721c0.32992,0.46624 0.60666,0.95021 0.83024,1.4519zM263.04796,188.58459c-0.21267,-0.52623 -0.48396,-1.02109 -0.81388,-1.48461l0.60121,-0.2004c0.31356,0.37354 0.58757,0.83978 0.82206,1.39873zM270.45468,187.88933c-0.24266,-0.23721 -0.47033,-0.43761 -0.683,-0.60121l0.65437,-0.32718c0.26175,0.17995 0.52623,0.39944 0.79343,0.65846l-0.49897,0.26993h0.85069v0.6871h-2.094c0.09543,0.68164 0.23176,1.22832 0.40899,1.64003c0.33809,-0.39535 0.65165,-0.83842 0.94067,-1.3292l0.67891,0.36809c-0.35718,0.58076 -0.76617,1.13289 -1.22696,1.65639c0.13087,0.16632 0.26721,0.30401 0.40899,0.41307c0.10089,0.07361 0.17313,0.11042 0.21676,0.11042c0.07907,0 0.15406,-0.2413 0.22494,-0.7239c0.01091,-0.06271 0.02182,-0.12815 0.03272,-0.19632l0.71164,0.40081c-0.09543,0.51805 -0.18677,0.86568 -0.27402,1.04291c-0.14178,0.29719 -0.31901,0.4458 -0.53168,0.4458c-0.15814,0 -0.36127,-0.07498 -0.60939,-0.22494c-0.27538,-0.16632 -0.53577,-0.39126 -0.78116,-0.67482c-0.29992,0.27266 -0.64347,0.52486 -1.03064,0.75662l-0.31901,-0.35173h-2.65022v-1.79135h2.67067v1.42327c0.28629,-0.1854 0.58621,-0.41307 0.89976,-0.683c-0.29174,-0.56167 -0.50714,-1.32239 -0.64619,-2.28213h-3.35776v0.94476c0,0.82615 -0.03272,1.42736 -0.09815,1.80362c-0.07089,0.40626 -0.23176,0.82479 -0.4826,1.25558l-0.75253,-0.55213c0.20722,-0.35718 0.34083,-0.79616 0.40081,-1.31693c0.03545,-0.30264 0.05317,-0.67074 0.05317,-1.10426v-1.71773h4.15528c-0.02182,-0.22085 -0.04363,-0.51396 -0.06544,-0.87932h0.87114c0.01908,0.32992 0.0409,0.62302 0.06544,0.87932zM266.44663,190.73177v0.57667h1.13698v-0.57667zM265.51005,189.00995h2.93242v0.6462h-2.93242zM264.10314,194.32266c0.29447,-0.50442 0.51396,-1.07971 0.65847,-1.72591l0.83024,0.2413c-0.13087,0.82615 -0.36263,1.49689 -0.69527,2.01221zM266.23804,192.62945h0.8875v1.14925c0,0.14996 0.04771,0.23994 0.14314,0.26993c0.11997,0.03818 0.39536,0.05726 0.82615,0.05726c0.51805,0 0.84933,-0.02044 0.99383,-0.06134c0.08997,-0.02454 0.14859,-0.10498 0.17586,-0.2413c0.02727,-0.14723 0.05044,-0.35718 0.06953,-0.62984l0.87931,0.23312c-0.02999,0.67619 -0.14314,1.09335 -0.33945,1.25149c-0.11179,0.08725 -0.27538,0.14178 -0.49078,0.16359c-0.349,0.03818 -0.77026,0.05727 -1.26376,0.05727c-0.8316,0 -1.35237,-0.04227 -1.56232,-0.12679c-0.21267,-0.08452 -0.31901,-0.27538 -0.31901,-0.57258zM271.16222,194.63348c-0.29447,-0.67346 -0.64074,-1.28284 -1.03882,-1.82816l0.74435,-0.39262c0.43625,0.49896 0.80024,1.05791 1.09199,1.67683zM268.17254,193.70099c-0.34628,-0.53441 -0.64483,-0.93385 -0.89568,-1.19832l0.62575,-0.39262c0.34082,0.29447 0.66256,0.66664 0.9652,1.11653zM273.1417,187.35356h0.9652v4.8751c0,1.02791 0.53986,1.54187 1.61958,1.54187c0.71164,0 1.29512,-0.32855 1.75045,-0.98565c0.29447,-0.42262 0.55895,-1.07699 0.79343,-1.96313l0.83024,0.50305c-0.27811,0.98429 -0.61212,1.72046 -1.00201,2.20852c-0.61348,0.76071 -1.41099,1.14106 -2.39256,1.14106c-1.02519,0 -1.74773,-0.31628 -2.16762,-0.94884c-0.26448,-0.39535 -0.39672,-0.90522 -0.39672,-1.52961zM276.65079,189.70521c-0.1745,-0.44716 -0.45397,-0.94884 -0.83842,-1.50506l0.67074,-0.24539c0.33537,0.47169 0.61483,0.96384 0.83841,1.47644zM277.84912,189.26352c-0.19632,-0.50987 -0.47306,-1.01564 -0.83024,-1.51733l0.63802,-0.21676c0.32446,0.39262 0.60121,0.86977 0.83024,1.43145zM284.20474,187.19406h0.92021v1.21468h2.38847v0.76889h-2.38847v1.6932c0.09543,0.32719 0.14314,0.62438 0.14314,0.89158c0,0.9652 -0.21403,1.67411 -0.6421,2.12672c-0.46352,0.49078 -1.1656,0.83296 -2.10627,1.02655l-0.46624,-0.69527c0.77434,-0.13906 1.34011,-0.35309 1.69729,-0.64211c0.28629,-0.23449 0.4826,-0.53986 0.58893,-0.91612c-0.29174,0.31901 -0.64074,0.47851 -1.047,0.47851c-0.47988,0 -0.85614,-0.13906 -1.1288,-0.41716c-0.3081,-0.31356 -0.46215,-0.74027 -0.46215,-1.28013c0,-0.47442 0.14996,-0.87386 0.44988,-1.19832c0.32173,-0.349 0.74708,-0.5235 1.27603,-0.5235c0.28356,0 0.54259,0.06816 0.77707,0.20449v-0.74845h-4.03668v-0.76889h4.03668zM284.23746,191.43932v-0.15132c0,-0.16087 -0.03818,-0.30674 -0.11452,-0.43761c-0.14996,-0.26175 -0.37354,-0.39262 -0.67074,-0.39262c-0.15814,0 -0.30401,0.04499 -0.43761,0.13496c-0.28356,0.18813 -0.42535,0.47033 -0.42535,0.8466c0,0.27266 0.0668,0.49624 0.2004,0.67074c0.15269,0.19632 0.36536,0.29447 0.63802,0.29447c0.26993,0 0.48397,-0.1186 0.6421,-0.35582c0.11179,-0.17177 0.16769,-0.3749 0.16769,-0.60939zM286.24966,188.24924c-0.09816,-0.40626 -0.2713,-0.82206 -0.51941,-1.2474l0.62574,-0.12679c0.22903,0.3599 0.40899,0.76753 0.53986,1.22287zM287.3621,188.20016c-0.09816,-0.41171 -0.2713,-0.82751 -0.51941,-1.2474l0.61348,-0.12679c0.23994,0.36263 0.4158,0.75935 0.52759,1.19015zM293.61548,188.9118c-1.03337,-0.45806 -2.19761,-0.80979 -3.49273,-1.05518l0.34355,-0.72799c1.33056,0.24812 2.50572,0.57121 3.52545,0.96929zM288.94896,191.90965c0.11179,-1.3033 0.27947,-2.43891 0.50305,-3.40684l0.87932,0.16359c-0.20722,0.86159 -0.34082,1.66866 -0.40081,2.42119c0.39535,-0.30264 0.85069,-0.54395 1.36601,-0.7239c0.4935,-0.1745 0.95429,-0.26175 1.38237,-0.26175c0.64074,0 1.16424,0.12406 1.5705,0.37218c0.54259,0.33537 0.81388,0.8725 0.81388,1.6114c0,0.72527 -0.24675,1.28694 -0.74026,1.68502c-0.68982,0.55076 -1.88951,0.85478 -3.59907,0.91203l-0.32719,-0.8466c1.14243,-0.00277 2.0122,-0.10911 2.60932,-0.31901c0.72254,-0.25085 1.08381,-0.72936 1.08381,-1.43554c0,-0.44716 -0.1595,-0.77979 -0.47851,-0.99792c-0.25357,-0.1745 -0.58621,-0.26175 -0.99793,-0.26175c-0.58621,0 -1.21605,0.19222 -1.88951,0.57667c-0.41171,0.23449 -0.77979,0.51941 -1.10426,0.85478zM300.13878,192.35136c-0.50442,1.48325 -1.07017,2.22488 -1.69728,2.22488c-0.44716,0 -0.83024,-0.31356 -1.14925,-0.94067c-0.24539,-0.48533 -0.41444,-1.01974 -0.50714,-1.60322c-0.11179,-0.70891 -0.16768,-1.61958 -0.16768,-2.73202c0,-0.4826 0.01772,-1.00065 0.05317,-1.55414l0.96112,0.07361c-0.03545,0.55349 -0.05317,1.07972 -0.05317,1.57868c0,1.75045 0.16359,2.97059 0.49078,3.66041c0.1336,0.28356 0.25902,0.42534 0.37626,0.42534c0.07634,0 0.17177,-0.08725 0.28629,-0.26175c0.23449,-0.35445 0.46079,-0.84251 0.67891,-1.46416zM302.72765,193.32473c-0.13906,-1.15061 -0.30947,-2.08037 -0.51123,-2.78928c-0.24539,-0.85886 -0.53032,-1.64547 -0.85478,-2.35984l0.87114,-0.21268c0.44988,0.89158 0.78388,1.75045 1.00201,2.5766c0.17995,0.67073 0.32855,1.52415 0.4458,2.56025zM310.10165,190.53546v0.8057h2.3762v0.73617h-2.3762v1.74228h1.09608v-1.34965h0.85478v2.49889h-0.85478v-0.43761h-2.99786v0.43761h-0.85478v-2.49889h0.85478v1.34965h1.03882v-1.74228h-2.26169v-0.73617h2.26169v-0.8057h-1.93859v-0.71164h3.23098c0.26175,-0.49078 0.51123,-1.07972 0.74844,-1.76681l0.81388,0.32719c-0.20177,0.46352 -0.44443,0.94339 -0.728,1.43963h0.76071v0.71164zM305.50057,188.51917v-1.50915h0.87931v1.50915h0.81388v0.81388h-0.81388v1.32102c0.20177,-0.06816 0.43625,-0.15405 0.70345,-0.25766l0.10225,0.76889c-0.31628,0.1336 -0.58485,0.24266 -0.8057,0.32719v2.71975c0,0.23994 -0.04363,0.41444 -0.13087,0.5235c-0.11179,0.13633 -0.32991,0.20449 -0.65437,0.20449c-0.29447,0 -0.56849,-0.02726 -0.82206,-0.08179l-0.16768,-0.85478c0.32719,0.04908 0.5644,0.07362 0.71163,0.07362c0.08452,0 0.13633,-0.01772 0.15542,-0.05317c0.01908,-0.02999 0.02863,-0.0818 0.02863,-0.15541v-2.05719c-0.27811,0.09271 -0.56031,0.18132 -0.8466,0.26584l-0.24948,-0.84251c0.46079,-0.11725 0.80707,-0.21131 1.03882,-0.2822c0.01908,-0.00544 0.03817,-0.01089 0.05726,-0.01637v-1.60322h-0.97748v-0.81388zM307.0179,187.48035c1.69592,-0.07634 3.20371,-0.23858 4.52337,-0.48669l0.55213,0.67891c-1.5187,0.26993 -3.1042,0.45397 -4.7565,0.55213zM307.96266,189.77475c-0.13633,-0.46897 -0.30128,-0.89295 -0.49487,-1.27194l0.75662,-0.25357c0.22903,0.44443 0.40217,0.86296 0.51941,1.25558zM309.47999,189.68067c-0.10361,-0.46624 -0.26584,-0.90113 -0.48669,-1.30466l0.76071,-0.25357c0.2263,0.39808 0.40217,0.83978 0.52759,1.32511zM314.58821,187.19406h0.90386v2.31076c0.64892,-0.67346 1.16833,-1.13561 1.55823,-1.38646c0.36263,-0.23449 0.7389,-0.35173 1.1288,-0.35173c0.39262,0 0.70891,0.11042 0.94884,0.33128c0.31628,0.29447 0.47443,0.68028 0.47443,1.15743c0,0.12542 -0.01636,0.29174 -0.04908,0.49896c-0.23994,1.52415 -0.3599,2.57933 -0.3599,3.16554c0,0.25085 0.06407,0.37626 0.19222,0.37626c0.0818,0 0.18949,-0.04635 0.3231,-0.13906c0.28083,-0.19359 0.5644,-0.51123 0.85069,-0.95294l0.33537,0.93658c-0.1745,0.27811 -0.39126,0.52486 -0.65028,0.74026c-0.29992,0.25085 -0.62029,0.37626 -0.96112,0.37626c-0.32446,0 -0.57667,-0.11316 -0.75662,-0.33946c-0.15269,-0.19359 -0.22903,-0.51668 -0.22903,-0.96929c0,-0.34355 0.04499,-0.86023 0.13497,-1.55005c0.11451,-0.86705 0.19085,-1.51051 0.22903,-1.9304c0.00544,-0.06816 0.00817,-0.12543 0.00817,-0.17178c0,-0.23994 -0.05044,-0.42397 -0.15133,-0.55212c-0.09543,-0.1227 -0.22766,-0.18404 -0.39671,-0.18404c-0.56985,0 -1.44644,0.75935 -2.62977,2.27805v3.86081h-0.90386v-2.83017c-0.45534,0.63802 -0.87522,1.24059 -1.25967,1.80771l-0.42535,-0.96929c0.6462,-0.78252 1.20787,-1.52824 1.68502,-2.23715v-1.03882h-1.43554v-0.82206h1.43554zM321.96629,188.15925h2.20443c0.24266,-0.38717 0.42671,-0.69936 0.55213,-0.93657l0.91204,0.13087c-0.0818,0.14723 -0.2263,0.38717 -0.43352,0.71981l-0.05317,0.08589h2.88334v0.8057h-3.42729c-0.35718,0.49078 -0.698,0.91613 -1.02246,1.27604c0.51532,-0.30811 0.98565,-0.46216 1.41099,-0.46216c0.65983,0 1.09199,0.33128 1.29648,0.99383c0.698,-0.23176 1.40963,-0.46079 2.1349,-0.6871l0.35173,0.79343l-0.14314,0.0409l-0.4049,0.10634c-0.76344,0.20722 -1.37419,0.38445 -1.83225,0.53168c0.03272,0.35445 0.05589,0.81251 0.06952,1.37418l-0.89567,0.04908c-0.00277,-0.32446 -0.00823,-0.67619 -0.01637,-1.05518v-0.0818c-1.25422,0.42807 -1.88133,0.85887 -1.88133,1.29239c0,0.22358 0.16087,0.37626 0.4826,0.45806c0.31083,0.07907 0.86705,0.11861 1.66866,0.11861c0.7389,0 1.51461,-0.04227 2.32712,-0.12679l0.09816,0.87114c-0.78798,0.05998 -1.60458,0.08997 -2.44982,0.08997c-1.04155,0 -1.78181,-0.07907 -2.22079,-0.23721c-0.54259,-0.19632 -0.81388,-0.54941 -0.81388,-1.05927c0,-0.4308 0.19222,-0.81115 0.57667,-1.14106c0.39808,-0.34082 1.09881,-0.69255 2.10218,-1.05518c-0.05453,-0.20994 -0.12678,-0.35718 -0.21676,-0.44171c-0.10088,-0.09543 -0.23448,-0.14314 -0.4008,-0.14314c-0.26993,0 -0.60938,0.10225 -1.01837,0.30674c-0.50442,0.25085 -1.04564,0.62847 -1.62367,1.13289l-0.54395,-0.62166c0.84796,-0.78798 1.51188,-1.56232 1.99176,-2.32303h-1.66457zM334.8125,193.25112l0.05725,0.73208c-1.18333,0.41716 -2.49889,0.76071 -3.9467,1.03064l-0.30265,-0.81797c0.25085,-0.03818 0.6053,-0.09952 1.06336,-0.18404v-1.49688c-0.47169,0.23994 -1.03337,0.46761 -1.68502,0.683l-0.46624,-0.728c1.31148,-0.35445 2.31213,-0.80707 3.00195,-1.35783h-2.92015v-0.71163h3.505v-0.61757h-2.65022v-0.6871h2.65022v-0.57667h-3.06738v-0.70345h3.06738v-0.8057h0.89567v0.8057h3.15736v0.70345h-3.15736v0.57667h2.7402v0.6871h-2.7402v0.61756h3.59498v0.71164h-0.97748l0.6053,0.41717c-0.37354,0.36263 -0.89704,0.75935 -1.5705,1.19015l-0.09407,0.06134c0.51259,0.46897 1.20787,0.85614 2.08582,1.16152l-0.55212,0.83024c-0.95157,-0.40353 -1.71638,-0.91067 -2.29441,-1.52142zM333.57328,191.1244c-0.27266,0.31901 -0.60121,0.6053 -0.98565,0.85886v1.83635c0.67346,-0.14996 1.34965,-0.32447 2.02857,-0.5235l0.18813,-0.05316c-0.55895,-0.61893 -0.96929,-1.32512 -1.23104,-2.11855zM335.06607,192.24092c0.48533,-0.34628 0.91067,-0.72254 1.27603,-1.1288h-1.9345c0.1745,0.41716 0.39399,0.79343 0.65847,1.1288zM342.48505,190.49457v3.6277c0,0.32992 -0.0668,0.55485 -0.2004,0.67482c-0.12542,0.10906 -0.36809,0.16359 -0.72799,0.16359c-0.40899,0 -0.79752,-0.0259 -1.16561,-0.0777l-0.17586,-0.86296c0.38172,0.06271 0.74708,0.09406 1.09608,0.09406c0.11724,0 0.19086,-0.02044 0.22085,-0.06134c0.02182,-0.03545 0.03272,-0.09407 0.03272,-0.17587v-3.38231h-3.51727v-0.81388h7.88113v0.81388zM339.02913,187.46398h5.91392v0.8057h-5.91392zM337.99849,193.7378c0.58894,-0.61621 1.06336,-1.43553 1.42327,-2.458l0.8466,0.31901c-0.41716,1.1697 -0.94203,2.08855 -1.57459,2.75656zM345.01667,194.23677c-0.5644,-1.19424 -1.05518,-2.0681 -1.47235,-2.62159l0.76889,-0.45806c0.59985,0.77162 1.11107,1.6114 1.53369,2.51934zM347.18837,187.35356h0.9652v4.8751c0,1.02791 0.53986,1.54187 1.61958,1.54187c0.71164,0 1.29511,-0.32855 1.75045,-0.98565c0.29447,-0.42262 0.55894,-1.07699 0.79343,-1.96313l0.83024,0.50305c-0.27811,0.98429 -0.61212,1.72046 -1.00201,2.20852c-0.61348,0.76071 -1.41099,1.14106 -2.39256,1.14106c-1.02519,0 -1.74773,-0.31628 -2.16762,-0.94884c-0.26447,-0.39535 -0.39671,-0.90522 -0.39671,-1.52961zM357.27394,187.20223h0.90386v1.03064h2.57251v0.77707h-2.57251v0.97339h2.42937v0.76889h-2.42937v1.26376c0.97065,0.32719 1.92768,0.81933 2.87107,1.47644l-0.48259,0.77707c-0.71437,-0.53441 -1.51053,-1.0061 -2.38848,-1.41509c-0.02182,0.46624 -0.11179,0.82751 -0.26993,1.08381c-0.27538,0.44443 -0.81797,0.66664 -1.62776,0.66664c-0.62438,0 -1.12607,-0.11724 -1.50506,-0.35173c-0.42262,-0.26175 -0.63393,-0.61621 -0.63393,-1.06336c0,-0.53441 0.28492,-0.92976 0.85478,-1.18605c0.38172,-0.16905 0.87796,-0.25357 1.48871,-0.25357c0.23994,0 0.50305,0.01909 0.78934,0.05727v-1.05519h-2.8997v-0.76889h2.8997v-0.97339h-3.07556v-0.77707h3.07556zM357.27394,192.5681c-0.32446,-0.06816 -0.63529,-0.10224 -0.93248,-0.10224c-0.36263,0 -0.6571,0.05317 -0.88341,0.15951c-0.26993,0.12815 -0.4049,0.31082 -0.4049,0.54804c0,0.19904 0.10497,0.35991 0.31492,0.4826c0.21267,0.12542 0.49624,0.18813 0.85069,0.18813c0.41989,0 0.70891,-0.11179 0.86705,-0.33537c0.12542,-0.1745 0.18813,-0.43489 0.18813,-0.78117zM365.95667,187.1777h0.92022v1.1288h2.413v0.78934h-2.413v1.75046c0.09547,0.33537 0.1432,0.63392 0.1432,0.89567c0,0.97065 -0.21403,1.68365 -0.6421,2.13899c-0.46624,0.49896 -1.16834,0.84387 -2.10627,1.03473l-0.46624,-0.69527c0.72799,-0.13906 1.26784,-0.33537 1.61957,-0.58894c0.32992,-0.23994 0.55214,-0.56576 0.66665,-0.97748c-0.29174,0.31901 -0.63938,0.47851 -1.04291,0.47851c-0.45261,0 -0.81933,-0.12815 -1.10016,-0.38444c-0.32992,-0.30264 -0.49488,-0.74163 -0.49488,-1.31693c0,-0.30264 0.07226,-0.59439 0.21677,-0.87523c0.09547,-0.17995 0.21271,-0.32991 0.35172,-0.44988c0.32174,-0.27266 0.70755,-0.40899 1.15743,-0.40899c0.28629,0 0.54531,0.06816 0.77707,0.20449v-0.8057h-4.03667v-0.78934h4.03667zM365.98947,191.42295v-0.15133c0,-0.1745 -0.04091,-0.32855 -0.12272,-0.46215c-0.15269,-0.25085 -0.37354,-0.37627 -0.66256,-0.37627c-0.14723,0 -0.28491,0.0409 -0.41306,0.1227c-0.29992,0.18813 -0.44989,0.47715 -0.44989,0.86705c0,0.24539 0.05454,0.45261 0.1636,0.62166c0.15269,0.23449 0.37763,0.35173 0.67482,0.35173c0.26993,0 0.48396,-0.12133 0.6421,-0.36399c0.11179,-0.17177 0.16769,-0.3749 0.16769,-0.60939z" fill="#ffffff" fill-rule="nonzero" stroke-width="0.26459"/></g></g></svg>