<svg version="1.1" xmlns="http://www.w3.org/2000/svg" xmlns:xlink="http://www.w3.org/1999/xlink" width="180" height="40" viewBox="0,0,180,40"><g transform="translate(-150,-160)"><g stroke="none" stroke-miterlimit="10"><path d="M150,160h180v40h-180z" fill-opacity="0" fill="#ffffff" stroke-width="0.2" stroke-linecap="round" stroke-linejoin="round"/><g fill="#ffffff" stroke-width="1" stroke-linecap="butt" stroke-linejoin="miter"><path d="M175.182,180.068c-0.04557,2.8802 -0.18685,4.70767 -0.42383,5.4824c-0.12305,0.39649 -0.31901,0.67448 -0.58789,0.83398c-0.25065,0.15039 -0.60839,0.22559 -1.0732,0.22559c-0.4375,0 -0.97983,-0.03874 -1.627,-0.11621l-0.28027,-1.3604c0.76107,0.09571 1.29427,0.14356 1.5996,0.14356c0.31901,0 0.52181,-0.08203 0.6084,-0.24609c0.15951,-0.29623 0.28255,-1.52669 0.36914,-3.6914h-1.9072c-0.00911,0.0319 -0.01595,0.07064 -0.02051,0.11621c-0.02735,0.17773 -0.07748,0.45117 -0.15039,0.82031l-1.3398,-0.20508c0.28255,-1.987 0.45573,-3.69143 0.51953,-5.1133h2.7822v-1.7158h-3.2061v-1.3193h4.5664v4.3066h-2.8574l-0.03418,0.58106c-0.02735,0.39649 -0.06153,0.81575 -0.10254,1.2578zM178.764,177.361l-0.25293,0.02051c-0.77473,0.0638 -1.7181,0.12532 -2.8301,0.18457l-0.33496,-1.3193c0.25065,-0.00453 0.46029,-0.00909 0.62891,-0.01367c0.09571,0 0.21875,-0.00227 0.36914,-0.0068c0.7064,-0.98893 1.29883,-1.96647 1.7773,-2.9326l1.4287,0.33496c-0.46485,0.80207 -1.03451,1.652 -1.709,2.5498l0.5332,-0.01367c0.88867,-0.02735 1.87987,-0.07976 2.9736,-0.15723l-0.11621,-0.15039c-0.27344,-0.37373 -0.60157,-0.77933 -0.98438,-1.2168l1.1484,-0.6084c1.02993,1.14847 1.8001,2.1898 2.3105,3.124l-1.1895,0.74512c-0.19141,-0.36914 -0.35547,-0.66536 -0.49219,-0.88867c-0.69727,0.09571 -1.3216,0.1709 -1.873,0.22559v1.3467h2.9258v3.917h-2.9258v2.2832c0.42383,-0.04557 0.87499,-0.0957 1.3535,-0.15039l0.15039,-0.02051c-0.20508,-0.44661 -0.43067,-0.87955 -0.67676,-1.2988l1.2715,-0.50586c0.58789,0.8978 1.12566,1.9847 1.6133,3.2607l-1.333,0.65625c-0.16406,-0.45573 -0.30306,-0.81803 -0.41699,-1.0869l-0.5127,0.08203c-1.9232,0.31445 -3.90107,0.55599 -5.9336,0.72461l-0.37598,-1.3398c1.09373,-0.04101 2.2285,-0.10482 3.4043,-0.19141l0.06836,-0.0068v-2.4062h-2.8438v-3.917h2.8438zM178.764,179.7331h-1.5723v1.6201h1.5723zM180.1517,179.7331v1.6201h1.6064v-1.6201z"/><path d="M190.228,175.194v-0.58789h-4.2725v-0.97754h10.09v0.97754h-4.3613v0.58789h5.6602v2.4541h-1.4834v-1.5723h-4.1768v2.6592h-1.4561v-2.6592h-4.1016v1.5723h-1.4697v-2.4541zM195.0678,184.8942c0.69727,0.26432 1.5677,0.47396 2.6113,0.62891l-0.7998,1.1621c-1.46287,-0.25065 -2.6637,-0.68132 -3.6025,-1.292c-0.93427,-0.61068 -1.66117,-1.36948 -2.1807,-2.2764h-1.5107v2.1055c1.00713,-0.14127 1.94137,-0.29166 2.8027,-0.45117l0.0957,1.0186c-1.60413,0.38281 -3.43843,0.7155 -5.5029,0.99805l-0.40332,-1.2031c0.71547,-0.07747 1.20537,-0.13216 1.4697,-0.16406l0.08203,-0.01367v-2.29h-1.4971c-0.0638,0.80207 -0.16862,1.44237 -0.31445,1.9209c-0.17318,0.57422 -0.45117,1.10969 -0.83398,1.6064l-1.2168,-1.0049c0.44661,-0.57877 0.72461,-1.25554 0.83398,-2.0303c0.05925,-0.41927 0.08887,-0.94107 0.08887,-1.5654v-2.8984h11.799v0.90918h-10.329v2.0986h10.917v0.96387h-1.5518l0.86816,0.57422c-0.51497,0.42839 -1.12337,0.82942 -1.8252,1.2031zM194.0014,184.36783c0.65625,-0.44661 1.17805,-0.86361 1.5654,-1.251h-2.9873c0.39193,0.5013 0.86589,0.9183 1.4219,1.251zM186.728,176.58173h2.9121v0.77246h-2.9121zM186.728,177.83953h2.9121v0.78613h-2.9121zM192.2719,176.58173h3.001v0.77246h-3.001zM192.2719,177.83953h3.001v0.78613h-3.001zM187.4731,180.62863h8.5107v0.89551h-8.5107z"/><path d="M204.228,175.194v-0.58789h-4.2725v-0.97754h10.09v0.97754h-4.3613v0.58789h5.6602v2.4541h-1.4834v-1.5723h-4.1768v2.6592h-1.4561v-2.6592h-4.1016v1.5723h-1.4697v-2.4541zM209.0678,184.8942c0.69727,0.26432 1.5677,0.47396 2.6113,0.62891l-0.7998,1.1621c-1.46287,-0.25065 -2.6637,-0.68132 -3.6025,-1.292c-0.93427,-0.61068 -1.66117,-1.36948 -2.1807,-2.2764h-1.5107v2.1055c1.00713,-0.14127 1.94137,-0.29166 2.8027,-0.45117l0.0957,1.0186c-1.60413,0.38281 -3.43843,0.7155 -5.5029,0.99805l-0.40332,-1.2031c0.71547,-0.07747 1.20537,-0.13216 1.4697,-0.16406l0.08203,-0.01367v-2.29h-1.4971c-0.0638,0.80207 -0.16862,1.44237 -0.31445,1.9209c-0.17318,0.57422 -0.45117,1.10969 -0.83398,1.6064l-1.2168,-1.0049c0.44661,-0.57877 0.72461,-1.25554 0.83398,-2.0303c0.05925,-0.41927 0.08887,-0.94107 0.08887,-1.5654v-2.8984h11.799v0.90918h-10.329v2.0986h10.917v0.96387h-1.5518l0.86816,0.57422c-0.51497,0.42839 -1.12337,0.82942 -1.8252,1.2031zM208.0014,184.36783c0.65625,-0.44661 1.17805,-0.86361 1.5654,-1.251h-2.9873c0.39193,0.5013 0.86589,0.9183 1.4219,1.251zM200.728,176.58173h2.9121v0.77246h-2.9121zM200.728,177.83953h2.9121v0.78613h-2.9121zM206.2719,176.58173h3.001v0.77246h-3.001zM206.2719,177.83953h3.001v0.78613h-3.001zM201.4731,180.62863h8.5107v0.89551h-8.5107z"/><path d="M220.066,174.579h5.3594v1.1484h-3.0352v1.1348h2.8438v1.1074h-2.8438v2.0371h-5.5029v-2.0371h-2.2422v1.2715c0,2.06447 -0.10937,3.69597 -0.32812,4.8945c-0.16862,0.91147 -0.44206,1.74317 -0.82031,2.4951l-1.2441,-0.98438c0.34635,-0.75193 0.58333,-1.67023 0.71094,-2.7549c0.11393,-0.95247 0.1709,-2.16927 0.1709,-3.6504v-4.6621h5.4072v-1.2305h1.5244zM214.6451,175.7274v1.1348h2.2422v-1.1348zM218.3433,175.7274v1.1348h2.5908v-1.1348zM218.3433,177.9696v1.0596h2.5908v-1.0596zM219.9292,185.1473c-1.31707,0.6836 -2.9896,1.20313 -5.0176,1.5586l-0.71094,-1.2578c1.90493,-0.22787 3.39743,-0.5765 4.4775,-1.0459c-0.92513,-0.66993 -1.71583,-1.46517 -2.3721,-2.3857h-0.94336v-1.1895h8.0049l0.71777,0.60156c-0.67907,1.0436 -1.6475,2.0257 -2.9053,2.9463c1.08007,0.43294 2.55207,0.75195 4.416,0.95703l-0.7998,1.292c-1.78647,-0.24153 -3.40887,-0.73373 -4.8672,-1.4766zM217.8989,182.0164c0.55143,0.64713 1.22137,1.2168 2.0098,1.709c0.88867,-0.57422 1.57453,-1.14389 2.0576,-1.709z"/></g><text transform="translate(226.72538,184.9488) scale(0.2924,0.2924)" font-size="40" xml:space="preserve" fill="#ffffff" stroke-width="1" stroke-linecap="butt" stroke-linejoin="miter" font-family="&quot;BIZ UDGothic&quot;" font-weight="normal" text-anchor="start"><tspan x="0" dy="0">(使用不可)</tspan></text></g></g></svg>