<svg version="1.1" xmlns="http://www.w3.org/2000/svg" xmlns:xlink="http://www.w3.org/1999/xlink" width="153.57826" height="32.534" viewBox="0,0,153.57826,32.534"><g transform="translate(-243.26087,-180)"><g stroke="none" stroke-miterlimit="10"><path d="M250.93499,180h138.23003c4.25146,0 7.67412,3.568 7.67412,8v16.534c0,4.432 -3.42266,8 -7.67412,8h-138.23003c-4.25146,0 -7.67412,-3.568 -7.67412,-8v-16.534c0,-4.432 3.42266,-8 7.67412,-8z" fill-opacity="0.7" fill="#000000" fill-rule="evenodd" stroke-width="0"/><g fill="#ffffff" fill-rule="nonzero" stroke-width="0.26459"><path d="M261.74755,191.4367c-0.0287,1.81324 -0.11762,2.96372 -0.26682,3.45145c-0.07746,0.2496 -0.20083,0.42462 -0.37011,0.52504c-0.1578,0.09467 -0.38302,0.14202 -0.67566,0.14202c-0.27543,0 -0.61685,-0.02438 -1.02425,-0.07315l-0.17645,-0.85641c0.47913,0.06025 0.81481,0.09038 1.00703,0.09038c0.20084,0 0.3285,-0.05165 0.38302,-0.15493c0.10042,-0.18649 0.17788,-0.96114 0.2324,-2.32393h-1.2007c-0.00572,0.02008 -0.01004,0.04446 -0.01296,0.07315c-0.01722,0.1119 -0.04878,0.28404 -0.09467,0.51643l-0.84349,-0.1291c0.17788,-1.2509 0.28691,-2.32392 0.32707,-3.21906h1.75155v-1.08019h-2.01837v-0.83058h2.87478v2.71125h-1.79889l-0.02152,0.3658c-0.01722,0.2496 -0.03873,0.51356 -0.06455,0.79186zM264.00262,189.7325l-0.15923,0.01297c-0.48773,0.04018 -1.08162,0.0789 -1.78168,0.11619l-0.21088,-0.83063c0.1578,-0.00292 0.28978,-0.00578 0.39593,-0.00859c0.06025,0 0.13771,-0.00145 0.2324,-0.00437c0.44471,-0.62258 0.81768,-1.23799 1.11893,-1.84624l0.89944,0.21088c-0.29264,0.50495 -0.65127,1.04003 -1.07589,1.60522l0.33568,-0.00859c0.55946,-0.01722 1.18348,-0.05022 1.87205,-0.09899l-0.07315,-0.09467c-0.17214,-0.23526 -0.37871,-0.49061 -0.61971,-0.76603l0.72299,-0.38302c0.6484,0.72299 1.13327,1.37858 1.45461,1.96673l-0.74883,0.46909c-0.1205,-0.2324 -0.22378,-0.41887 -0.30986,-0.55946c-0.43896,0.06025 -0.83202,0.1076 -1.17917,0.14202v0.84781h1.84192v2.46594h-1.84192v1.43739c0.26682,-0.0287 0.55085,-0.06025 0.8521,-0.09467l0.09467,-0.01297c-0.1291,-0.28112 -0.27112,-0.55364 -0.42605,-0.8176l0.80046,-0.31846c0.37011,0.5652 0.70865,1.24947 1.01565,2.0528l-0.8392,0.41314c-0.10329,-0.28691 -0.19079,-0.51499 -0.26251,-0.68426l-0.32277,0.05164c-1.21074,0.19797 -2.4559,0.35002 -3.73549,0.45619l-0.23669,-0.8435c0.68857,-0.02581 1.40296,-0.06599 2.14317,-0.1205l0.04304,-0.00437v-1.51485h-1.79029v-2.46594h1.79029zM264.00262,191.22583h-0.98982v1.01995h0.98982zM264.87624,191.22583v1.01995h1.01134v-1.01995zM271.21969,188.36826v-0.3701h-2.68973v-0.61541h6.35206v0.61541h-2.74566v0.3701h3.56334v1.54498h-0.93387v-0.98982h-2.62947v1.67408h-0.91666v-1.67408h-2.58214v0.98982h-0.92526v-1.54498zM274.2666,194.47502c0.43896,0.16641 0.98695,0.29838 1.64396,0.39593l-0.50352,0.73161c-0.92096,-0.1578 -1.67695,-0.42892 -2.26798,-0.81337c-0.58815,-0.38445 -1.04577,-0.86215 -1.37283,-1.43309h-0.95109v1.3255c0.63405,-0.08894 1.22221,-0.18361 1.76445,-0.28403l0.06024,0.64123c-1.0099,0.24099 -2.16469,0.45044 -3.46437,0.62832l-0.25391,-0.75742c0.45044,-0.04877 0.75886,-0.0832 0.92526,-0.10329l0.05164,-0.00859v-1.44169h-0.94248c-0.04017,0.50495 -0.10615,0.90806 -0.19797,1.20931c-0.10903,0.3615 -0.28403,0.69861 -0.52504,1.01133l-0.76603,-0.63262c0.28117,-0.36436 0.45619,-0.79042 0.52504,-1.27816c0.0373,-0.26396 0.05595,-0.59245 0.05595,-0.98552v-1.8247h7.42795v0.57238h-6.50268v1.32119h6.87278v0.6068h-0.97691l0.54655,0.3615c-0.3242,0.26969 -0.70722,0.52217 -1.14905,0.75742zM273.59524,194.14365c0.41314,-0.28117 0.74165,-0.54368 0.98552,-0.78755h-1.88065c0.24674,0.31559 0.54512,0.57812 0.89514,0.78755zM269.01626,189.24189h1.83331v0.4863h-1.83331zM269.01626,190.03375h1.83331v0.49491h-1.83331zM272.50644,189.24189h1.88926v0.4863h-1.88926zM272.50644,190.03375h1.88926v0.49491h-1.88926zM269.48535,191.7896h5.35793v0.56376h-5.35793zM277.08113,187.87767h6.5328v0.88223h-3.64081v1.82901h4.32938v0.88223h-4.32938v2.13456c0,0.16066 0.02868,0.26826 0.08607,0.32277c0.11189,0.1119 0.6398,0.16784 1.58371,0.16784c0.66849,0 1.34845,-0.02296 2.03989,-0.06886v0.9683c-0.71726,0.0373 -1.39578,0.05595 -2.03558,0.05595c-0.94678,0 -1.55215,-0.02868 -1.8161,-0.08607c-0.37011,-0.07746 -0.61542,-0.24674 -0.73592,-0.50782c-0.07172,-0.15206 -0.10759,-0.34859 -0.10759,-0.58958v-2.39709h-2.34544v-0.88223h2.34544v-1.82901h-1.90648zM286.37251,188.60927h5.92169v0.92526h-5.92169zM285.49889,193.53685h7.66894v0.93387h-7.66894zM300.98309,188.35966l0.61541,0.50352c-0.40167,1.83619 -1.05294,3.25779 -1.95381,4.26483c-0.49921,0.5566 -1.14475,1.04433 -1.93661,1.4632c-0.56233,0.29551 -1.16627,0.53077 -1.81179,0.70578l-0.49921,-0.84781c1.47468,-0.38445 2.61943,-0.99842 3.43424,-1.84192c-0.67136,-0.6025 -1.41157,-1.13614 -2.22064,-1.60093l0.56376,-0.69718c0.78898,0.41028 1.53924,0.91523 2.25077,1.51485c0.55946,-0.89514 0.91092,-1.76159 1.05437,-2.59936h-3.02971c-0.69431,1.08163 -1.51199,1.90935 -2.45302,2.48315l-0.63262,-0.68427c0.90949,-0.54799 1.65687,-1.27242 2.24215,-2.1733c0.30125,-0.45905 0.53508,-0.95395 0.70147,-1.48472l0.93387,0.22809c-0.09467,0.25821 -0.20083,0.51356 -0.31846,0.76603zM307.3954,194.27275c1.68413,-0.42462 2.52619,-1.39005 2.52619,-2.89629c0,-0.657 -0.16927,-1.22221 -0.50782,-1.6956c-0.37872,-0.53363 -0.95539,-0.87649 -1.73003,-1.02855c-0.16927,1.33124 -0.40024,2.42147 -0.69288,3.2707c-0.20083,0.59389 -0.45044,1.15479 -0.74882,1.68269c-0.43035,0.75169 -0.91953,1.12753 -1.46751,1.12753c-0.4074,0 -0.77034,-0.18362 -1.0888,-0.55086c-0.2037,-0.2324 -0.36867,-0.51786 -0.49491,-0.85641c-0.16641,-0.43896 -0.2496,-0.91092 -0.2496,-1.41587c0,-0.81768 0.22522,-1.5708 0.67566,-2.25937c0.45618,-0.70292 1.04863,-1.2136 1.77736,-1.53206c0.53077,-0.2324 1.11318,-0.34859 1.74725,-0.34859c0.98982,0 1.83045,0.26539 2.52189,0.79616c0.84924,0.65127 1.27385,1.57367 1.27385,2.76718c0,1.99972 -1.01134,3.26783 -3.03401,3.80435zM306.74986,188.61787c-0.50782,0.05738 -0.93244,0.19366 -1.27385,0.40883c-0.21806,0.14059 -0.43466,0.32707 -0.64984,0.55947c-0.59676,0.65988 -0.89514,1.42448 -0.89514,2.29379c0,0.63407 0.12623,1.1304 0.37871,1.48903c0.15493,0.22092 0.30843,0.33138 0.46048,0.33138c0.20657,0 0.43896,-0.22809 0.69718,-0.68427c0.63119,-1.11032 1.05867,-2.57639 1.28246,-4.39824zM313.63126,192.40501v1.56219c0,0.22665 0.0832,0.36293 0.2496,0.40883c0.24674,0.06886 1.06298,0.10329 2.44872,0.10329c1.23082,0 1.99685,-0.03586 2.2981,-0.10759c0.14346,-0.03442 0.23526,-0.11476 0.27544,-0.24099c0.04877,-0.14346 0.0875,-0.4777 0.11619,-1.00273l0.95109,0.29264c-0.03156,0.5652 -0.07746,0.95252 -0.1377,1.16197c-0.07746,0.27256 -0.22092,0.45762 -0.43035,0.55517c-0.14919,0.06885 -0.35576,0.11188 -0.61971,0.1291c-0.67997,0.04877 -1.56794,0.07315 -2.6639,0.07315c-1.53494,0 -2.44729,-0.02725 -2.73707,-0.08176c-0.32707,-0.06025 -0.53795,-0.2037 -0.63262,-0.43035c-0.04591,-0.11476 -0.06886,-0.25821 -0.06886,-0.43035v-4.41976l-0.04303,0.03443c-0.13198,0.09467 -0.28834,0.1994 -0.46909,0.31416l-0.58958,-0.7144c1.02425,-0.56233 1.89069,-1.36424 2.59936,-2.40569l0.6025,0.41314h2.44872l0.45618,0.47339c-0.37872,0.53651 -0.77464,1.01994 -1.18778,1.4503h2.75858v2.86187zM313.63126,191.63898h1.85054v-1.30398h-1.85054zM316.40706,190.33499v1.30398h1.88926v-1.30398zM315.40863,189.54314c0.3701,-0.38733 0.6857,-0.76746 0.94678,-1.14045h-1.98824c-0.31846,0.39019 -0.69718,0.77034 -1.13614,1.14045zM320.76226,189.10848h1.90217c0.08607,-0.44183 0.18218,-0.99125 0.28834,-1.64826l0.02152,-0.12481l0.94248,0.14202c-0.09756,0.60823 -0.19797,1.15192 -0.30125,1.63105h0.67997c0.6857,0 1.17774,0.15493 1.47611,0.46478c0.26682,0.2783 0.40024,0.71152 0.40024,1.29968c0,0.98695 -0.10472,1.91221 -0.31416,2.77579c-0.1205,0.48773 -0.26682,0.84781 -0.43896,1.0802c-0.21804,0.28978 -0.52073,0.43466 -0.90806,0.43466c-0.46191,0 -0.96829,-0.14919 -1.51915,-0.44757l0.10759,-0.90805c0.54512,0.26108 0.96687,0.39163 1.26525,0.39163c0.16066,0 0.2826,-0.08464 0.36581,-0.25391c0.0918,-0.18649 0.17931,-0.45187 0.26251,-0.79616c0.16354,-0.70004 0.2453,-1.43882 0.2453,-2.21633c0,-0.4074 -0.08177,-0.67136 -0.2453,-0.79186c-0.14059,-0.10042 -0.39019,-0.15062 -0.74882,-0.15062h-0.82198c-0.45618,2.03128 -1.11032,3.76418 -1.96243,5.1987l-0.86502,-0.47339c0.88079,-1.47756 1.50911,-3.05266 1.88496,-4.72531h-1.71712zM327.8201,192.56424c-0.43323,-1.50625 -1.0142,-2.83174 -1.74294,-3.97649l0.82628,-0.42175c0.82054,1.31402 1.43166,2.64813 1.83331,4.00232zM335.20931,189.20746c-1.08737,-0.482 -2.31245,-0.85211 -3.67523,-1.11032l0.36149,-0.76603c1.40009,0.26108 2.63665,0.60107 3.70967,1.01994zM330.29895,192.36197c0.11764,-1.3714 0.29407,-2.56636 0.52933,-3.58486l0.92526,0.17214c-0.21806,0.90662 -0.35863,1.75585 -0.42175,2.54771c0.41601,-0.31846 0.89514,-0.57237 1.43739,-0.76173c0.51929,-0.18361 1.00416,-0.27543 1.45461,-0.27543c0.67422,0 1.22508,0.13054 1.65256,0.39163c0.57094,0.35289 0.85641,0.91809 0.85641,1.6956c0,0.76316 -0.25965,1.35419 -0.77894,1.77306c-0.72587,0.57955 -1.98824,0.89945 -3.78713,0.95969l-0.34429,-0.89083c1.20213,-0.00292 2.11735,-0.11481 2.74566,-0.33568c0.7603,-0.26396 1.14045,-0.76746 1.14045,-1.51054c0,-0.47052 -0.16784,-0.82054 -0.50352,-1.05006c-0.26682,-0.18361 -0.61685,-0.27543 -1.05006,-0.27543c-0.61684,0 -1.27959,0.20227 -1.98824,0.6068c-0.43323,0.24674 -0.82054,0.54656 -1.16197,0.89944zM340.65331,187.42579h0.95109v1.26955h1.96673v0.87362h-1.96673v1.41157c0.58528,-0.11764 1.1347,-0.17645 1.64826,-0.17645c0.56233,0 1.04433,0.1119 1.446,0.33568c0.38158,0.21231 0.66132,0.50782 0.8392,0.88653c0.12337,0.26108 0.18506,0.54224 0.18506,0.84349c0,0.82629 -0.32707,1.43166 -0.98121,1.8161c-0.42462,0.2496 -1.0386,0.42175 -1.84192,0.51643l-0.35289,-0.83059c0.68283,-0.06312 1.20787,-0.19079 1.5751,-0.38302c0.42175,-0.22379 0.63262,-0.59962 0.63262,-1.12753c0,-0.45618 -0.16497,-0.79759 -0.49491,-1.02424c-0.25247,-0.17214 -0.59676,-0.25822 -1.03286,-0.25822c-0.46478,0 -1.0056,0.07029 -1.62245,0.21088v2.27228c0,0.30986 -0.07746,0.5609 -0.2324,0.75312c-0.20084,0.25247 -0.49491,0.37872 -0.88223,0.37872c-0.35289,0 -0.72013,-0.10042 -1.10171,-0.30125c-0.19797,-0.10615 -0.37872,-0.2453 -0.54224,-0.41744c-0.30986,-0.32994 -0.46478,-0.69288 -0.46478,-1.0888c0,-0.37584 0.13914,-0.71008 0.41744,-1.00272c0.41601,-0.4361 1.03429,-0.81337 1.85483,-1.13184v-1.6827h-1.84193v-0.87362h1.84193zM340.65331,192.09946c-0.36724,0.15206 -0.67279,0.33424 -0.91666,0.54655c-0.28691,0.2496 -0.43035,0.49205 -0.43035,0.72731c0,0.22379 0.10042,0.42318 0.30125,0.59819c0.20657,0.18361 0.4361,0.27543 0.68857,0.27543c0.23813,0 0.3572,-0.14919 0.3572,-0.44757zM345.7143,190.50283c-0.52504,-0.80907 -1.11032,-1.5292 -1.75585,-2.16038l0.67136,-0.53794c0.67422,0.6111 1.26812,1.31402 1.78168,2.10874zM349.467,187.42579h0.95109v1.26955h1.96673v0.87362h-1.96673v1.41157c0.58528,-0.11764 1.13471,-0.17645 1.64827,-0.17645c0.56233,0 1.04433,0.1119 1.446,0.33568c0.38158,0.21231 0.66132,0.50782 0.8392,0.88653c0.12337,0.26108 0.18504,0.54224 0.18504,0.84349c0,0.82629 -0.32707,1.43166 -0.98121,1.8161c-0.42462,0.2496 -1.0386,0.42175 -1.84192,0.51643l-0.35289,-0.83059c0.68283,-0.06312 1.20787,-0.19079 1.5751,-0.38302c0.42175,-0.22379 0.63262,-0.59962 0.63262,-1.12753c0,-0.45618 -0.16497,-0.79759 -0.49491,-1.02424c-0.25247,-0.17214 -0.59676,-0.25822 -1.03286,-0.25822c-0.46478,0 -1.0056,0.07029 -1.62245,0.21088v2.27228c0,0.30986 -0.07746,0.5609 -0.2324,0.75312c-0.20083,0.25247 -0.49491,0.37872 -0.88223,0.37872c-0.35289,0 -0.72013,-0.10042 -1.10171,-0.30125c-0.19797,-0.10615 -0.37872,-0.2453 -0.54224,-0.41744c-0.30986,-0.32994 -0.46478,-0.69288 -0.46478,-1.0888c0,-0.37584 0.13914,-0.71008 0.41744,-1.00272c0.41601,-0.4361 1.03429,-0.81337 1.85483,-1.13184v-1.6827h-1.84192v-0.87362h1.84192zM349.467,192.09946c-0.36724,0.15206 -0.67279,0.33424 -0.91666,0.54655c-0.28691,0.2496 -0.43035,0.49205 -0.43035,0.72731c0,0.22379 0.10042,0.42318 0.30125,0.59819c0.20657,0.18361 0.4361,0.27543 0.68857,0.27543c0.23813,0 0.3572,-0.14919 0.3572,-0.44757zM354.52799,190.50283c-0.52504,-0.80907 -1.11032,-1.5292 -1.75584,-2.16038l0.67136,-0.53794c0.67422,0.6111 1.26811,1.31402 1.78167,2.10874zM359.48138,187.39997h0.94248v1.67408h2.83605v0.85641h-2.83605v2.31102c1.02138,0.37584 2.04562,0.90949 3.07274,1.60093l-0.52073,0.89944c-0.86932,-0.65127 -1.71999,-1.17056 -2.55201,-1.55789c-0.02008,0.7603 -0.21949,1.29824 -0.59819,1.61384c-0.3242,0.26682 -0.7933,0.40024 -1.40726,0.40024c-0.52504,0 -0.96686,-0.09467 -1.32549,-0.28403c-0.57668,-0.30412 -0.86502,-0.74595 -0.86502,-1.3255c0,-0.59676 0.30986,-1.04146 0.92957,-1.3341c0.41314,-0.19509 0.95252,-0.29264 1.61814,-0.29264c0.20944,0 0.44471,0.01578 0.70578,0.04734zM359.48138,192.86549c-0.30412,-0.06599 -0.59676,-0.09899 -0.87792,-0.09899c-0.37872,0 -0.69288,0.05881 -0.94248,0.17645c-0.30986,0.14059 -0.46478,0.33712 -0.46478,0.58958c0,0.25821 0.1205,0.46478 0.3615,0.61971c0.21806,0.14059 0.4949,0.21087 0.83058,0.21087c0.5107,0 0.83632,-0.17071 0.97691,-0.51213c0.07746,-0.18936 0.11619,-0.47052 0.11619,-0.84349zM365.99267,187.72704h4.77696l0.56808,0.67135l-0.32707,0.18075c-1.37714,0.76316 -2.45016,1.3671 -3.21907,1.81179c1.80175,-0.07172 3.33813,-0.14489 4.60912,-0.21949l0.07315,0.90805l-1.42878,0.06027c-0.70578,0.03156 -1.35562,0.19365 -1.94952,0.48629c-0.82915,0.41028 -1.24373,0.92671 -1.24373,1.54928c0,0.48773 0.28403,0.82197 0.8521,1.00272c0.44757,0.14059 1.16913,0.21232 2.16469,0.21518v0.93387c-1.26525,-0.00292 -2.18047,-0.12629 -2.74566,-0.37011c-0.81481,-0.34716 -1.22221,-0.90805 -1.22221,-1.6827c0,-0.95825 0.64697,-1.66404 1.94091,-2.11735c-0.68283,0.02295 -1.88639,0.08177 -3.61069,0.17645l-0.31416,0.0172l-0.06025,-0.89944c0.48773,0 0.98121,-0.00861 1.48042,-0.02582c1.17631,-0.72874 2.27228,-1.35131 3.28792,-1.86774h-3.63221zM377.90492,194.27275c1.68412,-0.42462 2.52618,-1.39005 2.52618,-2.89629c0,-0.657 -0.16927,-1.22221 -0.50781,-1.6956c-0.37871,-0.53363 -0.95538,-0.87649 -1.73003,-1.02855c-0.16928,1.33124 -0.40024,2.42147 -0.69288,3.2707c-0.20084,0.59389 -0.45045,1.15479 -0.74883,1.68269c-0.43035,0.75169 -0.91953,1.12753 -1.46752,1.12753c-0.4074,0 -0.77034,-0.18362 -1.0888,-0.55086c-0.2037,-0.2324 -0.36867,-0.51786 -0.49491,-0.85641c-0.1664,-0.43896 -0.2496,-0.91092 -0.2496,-1.41587c0,-0.81768 0.22522,-1.5708 0.67567,-2.25937c0.45618,-0.70292 1.04862,-1.2136 1.77735,-1.53206c0.53077,-0.2324 1.11319,-0.34859 1.74725,-0.34859c0.98982,0 1.83045,0.26539 2.52189,0.79616c0.84924,0.65127 1.27385,1.57367 1.27385,2.76718c0,1.99972 -1.01133,3.26783 -3.03401,3.80435zM377.25939,188.61787c-0.50782,0.05738 -0.93245,0.19366 -1.27385,0.40883c-0.21804,0.14059 -0.43466,0.32707 -0.64984,0.55947c-0.59675,0.65988 -0.89514,1.42448 -0.89514,2.29379c0,0.63407 0.12623,1.1304 0.37871,1.48903c0.15493,0.22092 0.30843,0.33138 0.46048,0.33138c0.20657,0 0.43897,-0.22809 0.69718,-0.68427c0.63118,-1.11032 1.05867,-2.57639 1.28246,-4.39824z"/><path d="M262.40598,198.06333v-0.37011h-2.68971v-0.61541h6.35206v0.61541h-2.74566v0.37011h3.56334v1.54498h-0.93387v-0.98982h-2.62947v1.67409h-0.91667v-1.67409h-2.58213v0.98982h-0.92526v-1.54498zM265.45291,204.17008c0.43896,0.16641 0.98695,0.29838 1.64395,0.39593l-0.50352,0.73161c-0.92096,-0.1578 -1.67695,-0.42892 -2.26798,-0.81337c-0.58815,-0.38445 -1.04577,-0.86215 -1.37283,-1.43309h-0.95109v1.32549c0.63405,-0.08894 1.22221,-0.18361 1.76446,-0.28403l0.06025,0.64123c-1.0099,0.24099 -2.16469,0.45044 -3.46437,0.62832l-0.25391,-0.75742c0.45044,-0.04877 0.75886,-0.08319 0.92526,-0.10329l0.05164,-0.0086v-1.44171h-0.94248c-0.04018,0.50495 -0.10617,0.90805 -0.19797,1.2093c-0.10903,0.3615 -0.28403,0.69861 -0.52504,1.01133l-0.76603,-0.63262c0.28117,-0.36436 0.45618,-0.79042 0.52504,-1.27816c0.0373,-0.26396 0.05595,-0.59245 0.05595,-0.98552v-1.8247h7.42795v0.57237h-6.50268v1.3212h6.87278v0.6068h-0.97691l0.54655,0.36149c-0.3242,0.26969 -0.70722,0.52217 -1.14905,0.75742zM264.78156,203.8387c0.41314,-0.28117 0.74165,-0.54368 0.98552,-0.78755h-1.88065c0.24674,0.31559 0.54512,0.57812 0.89514,0.78755zM260.20257,198.93694h1.83331v0.4863h-1.83331zM260.20257,199.7288h1.83331v0.49491h-1.83331zM263.69275,198.93694h1.88926v0.4863h-1.88926zM263.69275,199.7288h1.88926v0.49491h-1.88926zM260.67166,201.48465h5.35793v0.56377h-5.35793zM272.37734,197.676h3.374v0.72299h-1.91078v0.71439h1.79029v0.69718h-1.79029v1.28246h-3.46437v-1.28246h-1.41157v0.80046c0,1.29968 -0.06885,2.32679 -0.20657,3.08136c-0.10615,0.57381 -0.2783,1.09741 -0.51643,1.5708l-0.78325,-0.61971c0.21806,-0.47339 0.36724,-1.05151 0.44757,-1.73433c0.07172,-0.59963 0.10759,-1.36567 0.10759,-2.2981v-2.93502h3.40411v-0.77464h0.95969zM268.96462,198.39901v0.71439h1.41157v-0.71439zM271.29284,198.39901v0.71439h1.63105v-0.71439zM271.29284,199.81057v0.66705h1.63105v-0.66705zM272.29127,204.32931c-0.82915,0.43035 -1.88209,0.75742 -3.15881,0.98121l-0.44757,-0.79186c1.19926,-0.14345 2.13888,-0.36293 2.81883,-0.65845c-0.58242,-0.42175 -1.08019,-0.92239 -1.49333,-1.50194h-0.59389v-0.74883h5.03947l0.45187,0.37872c-0.42748,0.657 -1.03716,1.27529 -1.82901,1.85483c0.67997,0.27256 1.60666,0.47339 2.7801,0.6025l-0.50352,0.81337c-1.12466,-0.15206 -2.14604,-0.46191 -3.06414,-0.92957zM271.01311,202.35828c0.34716,0.4074 0.76889,0.76603 1.26525,1.07589c0.55946,-0.3615 0.99125,-0.72012 1.29537,-1.07589zM278.3765,202.10006v1.5622c0,0.22665 0.0832,0.36293 0.24961,0.40883c0.24674,0.06886 1.06298,0.10329 2.44872,0.10329c1.23082,0 1.99685,-0.03586 2.2981,-0.10759c0.14345,-0.03442 0.23526,-0.11476 0.27543,-0.24099c0.04877,-0.14346 0.0875,-0.4777 0.11619,-1.00273l0.95109,0.29264c-0.03156,0.5652 -0.07747,0.95252 -0.13771,1.16197c-0.07746,0.27256 -0.22092,0.45761 -0.43035,0.55515c-0.14919,0.06886 -0.35576,0.1119 -0.61971,0.1291c-0.67997,0.04877 -1.56794,0.07315 -2.6639,0.07315c-1.53494,0 -2.44729,-0.02727 -2.73707,-0.08177c-0.32707,-0.06025 -0.53794,-0.2037 -0.63262,-0.43035c-0.04591,-0.11476 -0.06886,-0.25821 -0.06886,-0.43035v-4.41976l-0.04304,0.03443c-0.13198,0.09467 -0.28834,0.1994 -0.46909,0.31416l-0.58958,-0.71439c1.02425,-0.56233 1.89069,-1.36422 2.59934,-2.40568l0.6025,0.41314h2.44872l0.45618,0.47339c-0.37872,0.53651 -0.77464,1.01994 -1.18779,1.4503h2.75859v2.86187zM278.3765,201.33403h1.85054v-1.30398h-1.85054zM281.1523,200.03005v1.30398h1.88926v-1.30398zM280.15387,199.2382c0.37011,-0.38733 0.6857,-0.76746 0.94678,-1.14045h-1.98824c-0.31846,0.39019 -0.69718,0.77034 -1.13614,1.14045zM285.99811,204.90598c-0.10903,-0.97548 -0.16354,-1.94521 -0.16354,-2.90921c0,-1.65257 0.12193,-3.22193 0.3658,-4.70809l0.94678,0.09899c-0.2324,1.28532 -0.34859,2.73563 -0.34859,4.35089c0,1.0845 0.06025,2.0987 0.18075,3.04261zM288.58024,198.08914h4.13572v0.91667h-4.13572zM293.0086,204.37665c-0.57381,0.08894 -1.25521,0.13342 -2.04419,0.13342c-1.98251,0 -2.97376,-0.58242 -2.97376,-1.74725c0,-0.46192 0.12337,-0.86501 0.3701,-1.2093l0.81337,0.3615c-0.15493,0.21804 -0.23239,0.46335 -0.23239,0.73591c0,0.33568 0.16784,0.56663 0.50352,0.69287c0.37297,0.14346 0.88223,0.21518 1.52776,0.21518c0.69718,0 1.34271,-0.0459 1.93661,-0.1377zM296.24058,202.71977c-0.53363,0.3615 -1.05294,0.6355 -1.55789,0.82198l-0.58958,-0.66275c1.37427,-0.46478 2.36983,-1.10602 2.98667,-1.92369l0.87362,0.21518c-0.12337,0.16066 -0.24673,0.30411 -0.3701,0.43035h2.96945l0.54655,0.46048c-0.4361,0.52504 -1.05437,1.06298 -1.85483,1.61384c0.90088,0.30412 1.93086,0.53508 3.08995,0.69288l-0.4863,0.89944c-1.36567,-0.26108 -2.5348,-0.61827 -3.5074,-1.07158c-1.09023,0.53363 -2.35117,0.90231 -3.78283,1.10602l-0.43036,-0.81768c1.13327,-0.08894 2.2522,-0.34429 3.35678,-0.76603l-0.04734,-0.03012c-0.4533,-0.30125 -0.8521,-0.62403 -1.19639,-0.96831zM296.94636,202.31524c0.38158,0.35289 0.86645,0.67997 1.45461,0.98121c0.61398,-0.35289 1.04577,-0.67997 1.29537,-0.98121zM298.58602,197.69322h3.57195v0.74882h-2.49606v1.928c0,0.28117 -0.07603,0.47339 -0.22809,0.57667c-0.12623,0.08607 -0.33711,0.1291 -0.63262,0.1291c-0.2783,0 -0.57955,-0.02295 -0.90374,-0.06886l-0.1119,-0.74882c0.31273,0.05165 0.57524,0.07746 0.78755,0.07746c0.0832,0 0.13198,-0.01865 0.14632,-0.05595c0.01147,-0.02581 0.0172,-0.06885 0.0172,-0.1291v-1.70851h-1.11032c0,0.62545 -0.07029,1.11605 -0.21088,1.47182c-0.24674,0.62832 -0.71726,1.07733 -1.41157,1.34701l-0.64983,-0.59819c0.53651,-0.20944 0.89944,-0.47913 1.0888,-0.80907c0.10903,-0.18936 0.18506,-0.41601 0.22809,-0.67997c0.02582,-0.15493 0.04448,-0.3988 0.05595,-0.7316h-2.60795v-0.74882h3.52461v-0.79186h0.94248zM301.49522,200.89507c-0.42462,-0.6398 -0.91523,-1.23655 -1.47181,-1.79029l0.70578,-0.4777c0.54512,0.47052 1.04146,1.03285 1.48903,1.68699zM293.92526,200.27536c0.58815,-0.45044 1.02281,-0.97261 1.30397,-1.5665l0.80046,0.29694c-0.3988,0.82341 -0.90949,1.46177 -1.53206,1.91509zM307.89891,199.39744c-0.0287,0.52504 -0.10328,0.93961 -0.22378,1.24373c-0.1291,0.32134 -0.35863,0.60537 -0.68857,0.85211l-0.43897,-0.45187v0.83919h-0.79186v-2.57352l-0.41314,-0.45187v0.49061h-0.68857v1.39435c0.18361,-0.07172 0.41887,-0.16641 0.70578,-0.28403l0.08607,0.81768c-0.21804,0.10329 -0.482,0.22235 -0.79186,0.35719v2.87478c0,0.25821 -0.0459,0.44326 -0.1377,0.55515c-0.10903,0.1291 -0.31989,0.19366 -0.63262,0.19366c-0.30986,0 -0.59389,-0.02868 -0.85211,-0.08607l-0.16784,-0.85641l0.15493,0.02152c0.26396,0.03442 0.4533,0.05164 0.56807,0.05164c0.09467,0 0.15062,-0.02295 0.16784,-0.06886c0.01147,-0.0287 0.0172,-0.07317 0.0172,-0.13342v-2.19912c-0.3242,0.11764 -0.60967,0.21661 -0.85641,0.29694l-0.26251,-0.87362c0.41601,-0.1205 0.78898,-0.23669 1.11893,-0.34859v-1.7128h-0.99413v-0.85641h0.99411v-1.58801h0.88223v1.58801h0.68857v0.24531c0.61971,-0.42462 1.12753,-1.02999 1.52346,-1.81611l0.55947,0.34429h1.8204l0.45188,0.3615c-0.2783,0.41888 -0.54512,0.7775 -0.80046,1.07589h1.63535v3.18033h-0.81768v-0.71869h-0.81337c-0.37584,0 -0.56377,-0.18792 -0.56377,-0.56376v-1.20069zM307.18453,199.39744h-0.63693v1.51915c0.2783,-0.20657 0.46048,-0.48199 0.54656,-0.82628c0.05165,-0.20083 0.08176,-0.43178 0.09038,-0.69288zM308.03232,198.70025c0.2496,-0.30698 0.42748,-0.55372 0.53363,-0.74021h-1.41587c-0.16066,0.23526 -0.36581,0.482 -0.61541,0.74021zM309.04366,199.39744v0.98552c0,0.07172 0.03443,0.10759 0.10329,0.10759h0.56808v-1.0931zM307.45995,202.98229h-2.39278v-0.74882h2.58213v-0.77464h0.86502v0.77464h2.63378v0.74882h-2.40569c0.44471,0.657 1.27959,1.13327 2.50467,1.42878l-0.4863,0.79186c-1.27959,-0.31273 -2.15035,-0.91379 -2.61227,-1.8032c-0.25821,0.58815 -0.68857,1.04863 -1.29106,1.38144c-0.38445,0.21231 -0.87792,0.38589 -1.48043,0.52073l-0.43466,-0.74022c0.63405,-0.1205 1.13471,-0.28403 1.50195,-0.49061c0.43896,-0.24674 0.7775,-0.60967 1.01563,-1.0888zM313.05028,197.26286h1.01563v5.12984c0,1.08163 0.56808,1.62245 1.70421,1.62245c0.74882,0 1.36279,-0.34572 1.84192,-1.03716c0.30986,-0.44471 0.58815,-1.13327 0.83489,-2.06571l0.87362,0.52933c-0.29264,1.03572 -0.64409,1.81036 -1.05437,2.32393c-0.64554,0.80046 -1.48473,1.20069 -2.51758,1.20069c-1.07876,0 -1.83906,-0.33281 -2.28089,-0.99842c-0.2783,-0.41601 -0.41744,-0.95252 -0.41744,-1.60953zM324.36864,197.10363h0.95109v1.0845h2.70694v0.81768h-2.70694v1.02424h2.55632v0.80907h-2.55632v1.3298c1.02138,0.34429 2.02842,0.86215 3.0211,1.55358l-0.50782,0.81768c-0.75169,-0.56233 -1.58945,-1.05867 -2.51328,-1.48903c-0.02295,0.49061 -0.11764,0.87076 -0.28403,1.14045c-0.28978,0.46766 -0.86072,0.70147 -1.71282,0.70147c-0.657,0 -1.18492,-0.12337 -1.58371,-0.37011c-0.44471,-0.27544 -0.66705,-0.6484 -0.66705,-1.11893c0,-0.56233 0.29981,-0.97834 0.89944,-1.24803c0.40167,-0.17788 0.92383,-0.26682 1.5665,-0.26682c0.25247,0 0.52934,0.02008 0.83059,0.06024v-1.11032h-3.05123v-0.80907h3.05123v-1.02425h-3.23628v-0.81768h3.23628zM324.36864,202.7499c-0.34141,-0.07172 -0.66849,-0.10759 -0.98121,-0.10759c-0.38158,0 -0.69145,0.05595 -0.92957,0.16784c-0.28403,0.13484 -0.42605,0.32707 -0.42605,0.57668c0,0.20944 0.11046,0.37871 0.33138,0.50782c0.22379,0.13198 0.52217,0.19797 0.89514,0.19797c0.44183,0 0.74595,-0.11764 0.91235,-0.35289c0.13198,-0.18361 0.19797,-0.45761 0.19797,-0.82197zM333.77192,197.07781h0.9683v1.18779h2.5391v0.83058h-2.5391v1.84193c0.10042,0.35289 0.15062,0.66704 0.15062,0.94247c0,1.02138 -0.22522,1.77164 -0.67566,2.25077c-0.49061,0.52504 -1.22939,0.88796 -2.21633,1.0888l-0.49061,-0.7316c0.76603,-0.14632 1.33411,-0.35289 1.70421,-0.61971c0.34716,-0.25247 0.58098,-0.59532 0.70147,-1.02855c-0.30698,0.33568 -0.67279,0.50352 -1.09741,0.50352c-0.47625,0 -0.86215,-0.13485 -1.15766,-0.40454c-0.34716,-0.31846 -0.52073,-0.78037 -0.52073,-1.38574c0,-0.31846 0.07603,-0.62545 0.22809,-0.92096c0.10042,-0.18936 0.22379,-0.34716 0.37011,-0.47339c0.33855,-0.28691 0.74451,-0.43035 1.2179,-0.43035c0.30125,0 0.57381,0.07172 0.81768,0.21518v-0.84781h-4.24761v-0.83058h4.24761zM333.80635,201.54491v-0.15923c0,-0.18361 -0.04304,-0.34572 -0.1291,-0.4863c-0.16066,-0.26396 -0.39306,-0.39593 -0.69718,-0.39593c-0.15493,0 -0.29982,0.04304 -0.43466,0.1291c-0.31559,0.19797 -0.47339,0.50208 -0.47339,0.91235c0,0.25821 0.05738,0.47626 0.17214,0.65414c0.16066,0.24674 0.39736,0.37011 0.71008,0.37011c0.28403,0 0.50925,-0.12767 0.67566,-0.38302c0.11764,-0.18075 0.17645,-0.39449 0.17645,-0.64123z"/></g></g></g></svg>