<svg version="1.1" xmlns="http://www.w3.org/2000/svg" xmlns:xlink="http://www.w3.org/1999/xlink" width="180" height="40" viewBox="0,0,180,40"><g transform="translate(-150,-160)"><g stroke="none" stroke-miterlimit="10"><path d="M150,160h180v40h-180z" fill="none" stroke-width="0.2" stroke-linecap="round" stroke-linejoin="round"/><g fill="#ffffff" stroke-width="1.0238" stroke-linecap="butt" stroke-linejoin="miter"><path d="M174.57505,179.53348c-0.03607,2.8802 -0.14788,4.70767 -0.33546,5.4824c-0.09739,0.39649 -0.25249,0.67448 -0.46531,0.83398c-0.19839,0.15039 -0.48153,0.22559 -0.84942,0.22559c-0.34628,0 -0.77552,-0.03874 -1.28774,-0.11621l-0.22183,-1.3604c0.60237,0.09571 1.02439,0.14356 1.26606,0.14356c0.25249,0 0.41301,-0.08203 0.48153,-0.24609c0.12625,-0.29623 0.22364,-1.52669 0.29217,-3.6914h-1.50951c-0.00721,0.0319 -0.01263,0.07064 -0.01624,0.11621c-0.02164,0.17773 -0.06132,0.45117 -0.11903,0.82031l-1.06043,-0.20508c0.22364,-1.987 0.3607,-3.69143 0.4112,-5.1133h2.20206v-1.7158h-2.53757v-1.3193h3.61422v4.3066h-2.26158l-0.02705,0.58106c-0.02164,0.39649 -0.0487,0.81575 -0.08116,1.2578zM177.41013,176.82648l-0.20019,0.02051c-0.61318,0.0638 -1.35984,0.12532 -2.23998,0.18457l-0.26512,-1.3193c0.19839,-0.00453 0.36431,-0.00909 0.49777,-0.01367c0.07575,0 0.17314,-0.00227 0.29217,-0.0068c0.5591,-0.98893 1.028,-1.96647 1.4067,-2.9326l1.13079,0.33496c-0.36792,0.80207 -0.8188,1.652 -1.35264,2.5498l0.42202,-0.01367c0.70336,-0.02735 1.48788,-0.07976 2.35355,-0.15723l-0.09198,-0.15039c-0.21643,-0.37373 -0.47613,-0.77933 -0.77912,-1.2168l0.90894,-0.6084c0.81518,1.14847 1.42475,2.1898 1.82872,3.124l-0.94147,0.74512c-0.15149,-0.36914 -0.28135,-0.66536 -0.38956,-0.88867c-0.55188,0.09571 -1.04602,0.1709 -1.48245,0.22559v1.3467h2.31572v3.917h-2.31572v2.2832c0.33545,-0.04557 0.69254,-0.0957 1.07127,-0.15039l0.11903,-0.02051c-0.16232,-0.44661 -0.34087,-0.87955 -0.53564,-1.2988l1.00637,-0.50586c0.46531,0.8978 0.89094,1.9847 1.2769,3.2607l-1.05505,0.65625c-0.12985,-0.45573 -0.23986,-0.81803 -0.33004,-1.0869l-0.40579,0.08203c-1.52218,0.31445 -3.08762,0.55599 -4.69634,0.72461l-0.29758,-1.3398c0.86567,-0.04101 1.76382,-0.10482 2.69444,-0.19141l0.05411,-0.0068v-2.4062h-2.25082v-3.917h2.25082zM177.41013,179.19858h-1.24444v1.6201h1.24444zM178.50847,179.19858v1.6201h1.27144v-1.6201z"/><path d="M186.48368,174.65948v-0.58789h-3.38161v-0.97754h7.98605v0.97754h-3.45189v0.58789h4.47994v2.4541h-1.17409v-1.5723h-3.30587v2.6592h-1.15248v-2.6592h-3.24634v1.5723h-1.16324v-2.4541zM190.3143,184.35968c0.55188,0.26432 1.2408,0.47396 2.0668,0.62891l-0.63303,1.1621c-1.15783,-0.25065 -2.10827,-0.68132 -2.85132,-1.292c-0.73946,-0.61068 -1.31479,-1.36948 -1.72599,-2.2764h-1.19569v2.1055c0.79713,-0.14127 1.53656,-0.29166 2.21829,-0.45117l0.07574,1.0186c-1.26964,0.38281 -2.72146,0.7155 -4.35545,0.99805l-0.31922,-1.2031c0.56628,-0.07747 0.95403,-0.13216 1.16324,-0.16406l0.06492,-0.01367v-2.29h-1.18493c-0.0505,0.80207 -0.13346,1.44237 -0.24888,1.9209c-0.13707,0.57422 -0.35709,1.10969 -0.66008,1.6064l-0.96308,-1.0049c0.35349,-0.57877 0.57351,-1.25554 0.66008,-2.0303c0.04689,-0.41927 0.07034,-0.94107 0.07034,-1.5654v-2.8984h9.3387v0.90918h-8.17522v2.0986h8.64061v0.96387h-1.22822l0.68713,0.57422c-0.40759,0.42839 -0.88913,0.82942 -1.44461,1.2031zM189.47027,183.83331c0.51941,-0.44661 0.93241,-0.86361 1.23899,-1.251h-2.36439c0.3102,0.5013 0.68534,0.9183 1.12541,1.251zM183.7135,176.04721h2.30488v0.77246h-2.30488zM183.7135,177.30501h2.30488v0.78613h-2.30488zM188.1014,176.04721h2.37523v0.77246h-2.37523zM188.1014,177.30501h2.37523v0.78613h-2.37523zM184.30323,180.09411h6.73606v0.89551h-6.73606z"/><path d="M193.63076,173.88048h8.21321v1.4014h-4.5773v2.9053h5.44302v1.4014h-5.44302v3.3906c0,0.25521 0.03607,0.42611 0.10821,0.5127c0.14068,0.17773 0.80436,0.2666 1.99105,0.2666c0.84045,0 1.6953,-0.03646 2.56456,-0.10938v1.5381c-0.90176,0.05925 -1.75482,0.08887 -2.55918,0.08887c-1.19034,0 -1.95142,-0.04557 -2.28326,-0.13672c-0.46531,-0.12305 -0.7737,-0.39193 -0.92516,-0.80664c-0.09018,-0.24153 -0.13527,-0.55371 -0.13527,-0.93652v-3.8076h-2.94875v-1.4014h2.94875v-2.9053h-2.39685z"/><path d="M204.87931,175.04248h7.44484v1.4697h-7.44484zM203.78097,182.86958h9.64184v1.4834h-9.64184z"/><path d="M222.35524,174.64648l0.7737,0.7998c-0.50498,2.91667 -1.32377,5.1748 -2.45636,6.7744c-0.62764,0.88413 -1.43923,1.65887 -2.43476,2.3242c-0.70695,0.4694 -1.46622,0.8431 -2.27781,1.1211l-0.62762,-1.3467c1.85402,-0.61068 3.29322,-1.58595 4.31762,-2.9258c-0.84404,-0.957 -1.77464,-1.80467 -2.79179,-2.543l0.70878,-1.1074c0.99194,0.65169 1.93517,1.45376 2.82971,2.4062c0.70336,-1.42187 1.14522,-2.79817 1.32557,-4.1289h-3.80901c-0.8729,1.71807 -1.9009,3.03283 -3.08401,3.9443l-0.79536,-1.0869c1.14342,-0.87047 2.08305,-2.02117 2.81886,-3.4521c0.37874,-0.7292 0.67272,-1.51533 0.88195,-2.3584l1.17409,0.3623c-0.11903,0.41016 -0.25249,0.81576 -0.40038,1.2168z"/><path d="M228.55571,177.78348v-1.0938c-0.39317,0.05925 -0.97931,0.12077 -1.75843,0.18457l-0.40038,-1.1348c1.76743,-0.14127 3.3004,-0.40787 4.59891,-0.7998l0.6168,1.1348c-0.59878,0.17773 -1.25165,0.32812 -1.9586,0.45117l-0.1028,0.01367v1.2441h1.95322v3.8623h-1.95322v1.9277c0.16592,-0.02279 0.4112,-0.05697 0.73583,-0.10254c0.07214,-0.01367 0.17494,-0.0319 0.3084,-0.05469c-0.15149,-0.36914 -0.29217,-0.68815 -0.42202,-0.95703l0.88733,-0.45117c0.43645,0.84307 0.86928,1.8525 1.2985,3.0283l-0.98468,0.62891c-0.14068,-0.44661 -0.26331,-0.82488 -0.36791,-1.1348l-0.03787,-0.10938c-1.37428,0.40104 -2.88381,0.71777 -4.52862,0.9502l-0.33004,-1.374c1.1218,-0.10482 1.93696,-0.19597 2.44552,-0.27344v-2.0781h-1.90447v-3.8623zM228.55571,178.86358h-0.94147v1.7021h0.94147zM229.55123,178.86358v1.7021h0.9793v-1.7021zM233.27365,173.30598v4.5049c0,2.7754 0.08296,4.7054 0.24888,5.79c0.05772,0.3737 0.1028,0.56055 0.13527,0.56055c0.06492,0 0.18036,-0.73827 0.34628,-2.2148l0.82243,1.0049c-0.13707,1.12567 -0.29036,1.91407 -0.45989,2.3652c-0.18756,0.48763 -0.41661,0.73145 -0.68714,0.73145c-0.3102,0 -0.59155,-0.2985 -0.84404,-0.89551c-0.4617,-1.09373 -0.69254,-3.2744 -0.69254,-6.542v-4.1016h-6.12473v3.6982c0,2.03713 -0.0523,3.5228 -0.1569,4.457c-0.14428,1.2988 -0.47974,2.45863 -1.00637,3.4795l-0.89818,-1.1211c0.42563,-0.84767 0.69436,-1.87077 0.80621,-3.0693c0.07575,-0.80667 0.11362,-2.00523 0.11362,-3.5957v-5.0518z"/><path d="M239.03176,174.84448h0.95223v4.0195h3.18136v1.2031h-3.18136v4.0195h-0.95223v-4.0195h-3.18136v-1.2031h3.18136z"/><path d="M249.0915,174.65948v-0.58789h-3.38161v-0.97754h7.98605v0.97754h-3.45189v0.58789h4.47994v2.4541h-1.17409v-1.5723h-3.30587v2.6592h-1.1524v-2.6592h-3.24634v1.5723h-1.16324v-2.4541zM252.92212,184.35968c0.55188,0.26432 1.2408,0.47396 2.0668,0.62891l-0.63303,1.1621c-1.15783,-0.25065 -2.10827,-0.68132 -2.85132,-1.292c-0.73946,-0.61068 -1.31479,-1.36948 -1.72599,-2.2764h-1.19569v2.1055c0.79713,-0.14127 1.53656,-0.29166 2.21829,-0.45117l0.07574,1.0186c-1.26964,0.38281 -2.72146,0.7155 -4.35545,0.99805l-0.31922,-1.2031c0.56628,-0.07747 0.95403,-0.13216 1.16324,-0.16406l0.0649,-0.01367v-2.29h-1.18493c-0.0505,0.80207 -0.13346,1.44237 -0.24888,1.9209c-0.13707,0.57422 -0.35709,1.10969 -0.66008,1.6064l-0.96308,-1.0049c0.35349,-0.57877 0.57351,-1.25554 0.66008,-2.0303c0.04691,-0.41927 0.07037,-0.94107 0.07037,-1.5654v-2.8984h9.3387v0.90918h-8.17522v2.0986h8.64061v0.96387h-1.22822l0.68714,0.57422c-0.40759,0.42839 -0.88913,0.82942 -1.44461,1.2031zM252.07808,183.83331c0.51941,-0.44661 0.93241,-0.86361 1.23899,-1.251h-2.36439c0.3102,0.5013 0.68534,0.9183 1.12541,1.251zM246.32131,176.04721h2.30488v0.77246h-2.30488zM246.32131,177.30501h2.30488v0.78613h-2.30488zM250.70921,176.04721h2.37523v0.77246h-2.37523zM250.70921,177.30501h2.37523v0.78613h-2.37523zM246.91104,180.09411h6.73606v0.89551h-6.73606z"/><path d="M261.62858,174.04448h4.24187v1.1484h-2.4023v1.1348h2.25082v1.1074h-2.25082v2.0371h-4.35545v-2.0371h-1.77466v1.2715c0,2.06447 -0.08657,3.69597 -0.25971,4.8945c-0.13346,0.91147 -0.34988,1.74317 -0.64926,2.4951l-0.98468,-0.98438c0.27413,-0.75193 0.4617,-1.67023 0.56269,-2.7549c0.09017,-0.95247 0.13526,-2.16927 0.13526,-3.6504v-4.6621h4.2797v-1.2305h1.20653zM257.33803,175.19288v1.1348h1.77466v-1.1348zM260.26509,175.19288v1.1348h2.05057v-1.1348zM260.26509,177.43508v1.0596h2.05057v-1.0596zM261.5203,184.61278c-1.04244,0.6836 -2.36622,1.20313 -3.97134,1.5586l-0.56269,-1.2578c1.50772,-0.22787 2.68901,-0.5765 3.54386,-1.0459c-0.73222,-0.66993 -1.35805,-1.46517 -1.87747,-2.3857h-0.74665v-1.1895h6.33573l0.56811,0.60156c-0.53747,1.0436 -1.30397,2.0257 -2.29949,2.9463c0.85486,0.43294 2.01992,0.75195 3.49518,0.95703l-0.63304,1.292c-1.41396,-0.24153 -2.69806,-0.73373 -3.8523,-1.4766zM259.91336,181.48188c0.43645,0.64713 0.96669,1.2168 1.59072,1.709c0.70336,-0.57422 1.24621,-1.14389 1.62855,-1.709z"/></g><text transform="translate(267.04599,183.94897) scale(0.19951,0.27432)" font-size="40" xml:space="preserve" fill="#ffffff" stroke-width="1" stroke-linecap="butt" stroke-linejoin="miter" font-family="&quot;BIZ UDGothic&quot;" font-weight="normal" text-anchor="start"><tspan x="0" dy="0">(使用不可)</tspan></text></g></g></svg>