<svg version="1.1" xmlns="http://www.w3.org/2000/svg" xmlns:xlink="http://www.w3.org/1999/xlink" width="192" height="36" viewBox="0,0,192,36"><g transform="translate(-144,-162)"><g stroke="none" stroke-miterlimit="10"><path d="M144,198v-36h192v36z" fill="none" fill-rule="nonzero" stroke-width="1" stroke-linecap="butt" stroke-linejoin="miter"/><path d="M317,164c9.31184,0 17,7.09393 17,16c0,8.90606 -7.68816,16 -17,16h-154c-9.31184,0 -17,-7.09394 -17,-16c0,-8.90607 7.68816,-16 17,-16z" fill="#7d97b4" fill-rule="evenodd" stroke-width="1" stroke-linecap="round" stroke-linejoin="round"/><path d="M163,166h154c8.31,0 15,6.244 15,14c0,7.75599 -6.69,13.99999 -15,13.99999h-154c-8.31,0 -15,-6.244 -15,-13.99999c0,-7.756 6.69,-14 15,-14z" fill="#31476d" fill-rule="evenodd" stroke-width="1" stroke-linecap="round" stroke-linejoin="round"/><path d="M213.88789,173.71822h1.75183v8.22536h-1.75183zM221.60949,173.56032h1.75183v5.3758c0,1.88968 -0.15287,3.29566 -0.45864,4.21794c-0.25563,0.78695 -0.60399,1.4135 -1.04509,1.87965c-0.91727,0.98744 -2.39092,1.71674 -4.42094,2.18791l-0.86464,-1.54132c2.22049,-0.45112 3.64402,-1.20047 4.27057,-2.24806c0.39598,-0.66665 0.63407,-1.50873 0.71427,-2.52625c0.03508,-0.47117 0.05263,-1.12278 0.05263,-1.95484zM226.33118,175.43997h9.65388l1.86461,1.69169c-0.2005,2.20044 -0.63407,3.93223 -1.30072,5.19536c-0.78193,1.48367 -1.99243,2.63903 -3.63149,3.46608c-1.02253,0.51627 -2.38591,0.97742 -4.09012,1.38342l-0.86464,-1.52628c1.67415,-0.30576 2.99993,-0.70174 3.97735,-1.18794c1.59394,-0.78695 2.72173,-1.98491 3.38337,-3.5939c0.41101,-1.00248 0.6466,-2.28816 0.70675,-3.85705h-9.699zM238.59403,172.77838c0.33583,0 0.65662,0.09273 0.96238,0.27818c0.30074,0.17543 0.53382,0.42104 0.69923,0.73682c0.15037,0.28069 0.22556,0.57392 0.22556,0.87968c0,0.49122 -0.17543,0.92479 -0.5263,1.30072c-0.37092,0.39598 -0.82956,0.59397 -1.3759,0.59397c-0.27067,0 -0.53131,-0.06015 -0.78193,-0.18045c-0.31077,-0.14536 -0.5639,-0.35588 -0.75938,-0.63156c-0.23057,-0.33082 -0.34586,-0.69422 -0.34586,-1.0902c0,-0.30576 0.07769,-0.60149 0.23307,-0.88719c0.15538,-0.2857 0.3634,-0.51627 0.62404,-0.69171c0.31578,-0.20551 0.66414,-0.30827 1.04509,-0.30827zM238.58655,173.70317c-0.18546,0 -0.36089,0.05263 -0.5263,0.1579c-0.29573,0.18546 -0.4436,0.45864 -0.4436,0.81953c0,0.25563 0.08772,0.47618 0.26315,0.66164c0.19048,0.2005 0.42605,0.30074 0.70675,0.30074c0.16039,0 0.30827,-0.03508 0.4436,-0.10526c0.35087,-0.18045 0.5263,-0.46615 0.5263,-0.85712c0,-0.27568 -0.09775,-0.50876 -0.29322,-0.69923c-0.18045,-0.18546 -0.406,-0.27819 -0.67668,-0.27819zM242.11278,173.79339h1.75183v11.27039c0.93732,-0.30074 1.77189,-0.6491 2.5037,-1.04509c2.05509,-1.10774 3.76181,-2.51873 5.12017,-4.23298c0.40099,-0.50625 0.78444,-1.08769 1.15034,-1.74431l1.11275,1.57139c-1.04258,1.619 -2.35833,3.03251 -3.94727,4.24049c-1.93479,1.46863 -4.14025,2.55633 -6.61637,3.26308l-1.07516,-1.05261zM260.55592,187.04869v-7.71409c-1.52377,1.02253 -3.26308,1.88466 -5.21791,2.5864l-0.9098,-1.52627c2.22049,-0.74685 4.16781,-1.70923 5.84195,-2.88715c1.64407,-1.15787 3.10769,-2.48364 4.39086,-3.97735l1.45109,0.90975c-1.13781,1.30824 -2.40596,2.50871 -3.80441,3.60141v9.00729z" fill="#ffffff" fill-rule="nonzero" stroke-width="0.47478" stroke-linecap="butt" stroke-linejoin="miter"/></g></g></svg>