<svg version="1.1" xmlns="http://www.w3.org/2000/svg" xmlns:xlink="http://www.w3.org/1999/xlink" width="180" height="40" viewBox="0,0,180,40"><g transform="translate(-150,-160)"><g stroke="none" stroke-miterlimit="10"><path d="M150,160h180v40h-180z" fill-opacity="0" fill="#000000" stroke-width="0.2" stroke-linecap="round" stroke-linejoin="round"/><g fill="#ffffff" stroke-width="1" stroke-linecap="butt" stroke-linejoin="miter"><path d="M173.88101,180.06865c-0.0333,2.8802 -0.13655,4.70766 -0.30973,5.48239c-0.08992,0.39648 -0.23313,0.67448 -0.42962,0.83398c-0.18317,0.15039 -0.44459,0.22559 -0.78426,0.22559c-0.31972,0 -0.71602,-0.03874 -1.18891,-0.11621l-0.20482,-1.3603c0.55617,0.09571 0.94581,0.14355 1.16894,0.14355c0.23313,0 0.38132,-0.08203 0.4446,-0.24609c0.11656,-0.29622 0.20649,-1.5267 0.26976,-3.69143h-1.39373c-0.00666,0.0319 -0.01166,0.07063 -0.01498,0.11621c-0.01998,0.17773 -0.05661,0.45117 -0.1099,0.82031l-0.9791,-0.20507c0.20648,-1.987 0.33303,-3.69139 0.37966,-5.11321h2.03316v-1.71582h-2.34288v-1.31931h3.33703v4.30664h-2.08814l-0.02497,0.58105c-0.01998,0.39648 -0.04496,0.81576 -0.07493,1.25784zM176.49868,177.36161l-0.18484,0.0205c-0.56616,0.06381 -1.25555,0.12532 -2.06817,0.18457l-0.24478,-1.31931c0.18317,-0.00456 0.33637,-0.00911 0.45959,-0.01367c0.06994,0 0.15986,-0.00227 0.26976,-0.00683c0.51618,-0.98891 0.94913,-1.96643 1.29881,-2.93257l1.04408,0.33496c-0.33969,0.80205 -0.75599,1.65199 -1.2489,2.54982l0.38965,-0.01368c0.6494,-0.02734 1.37376,-0.07975 2.17308,-0.15722l-0.08492,-0.15038c-0.19982,-0.37369 -0.4396,-0.77928 -0.71935,-1.21675l0.83925,-0.6084c0.75268,1.14844 1.31551,2.18979 1.68849,3.12404l-0.8692,0.74511c-0.13988,-0.36913 -0.25977,-0.66536 -0.35968,-0.88867c-0.50953,0.09571 -0.96578,0.1709 -1.36877,0.22558v1.34664h2.13806v3.91696h-2.13806v2.28321c0.30973,-0.04558 0.63942,-0.0957 0.98908,-0.15038l0.1099,-0.02051c-0.14986,-0.44661 -0.31472,-0.87955 -0.49455,-1.29882l0.92918,-0.50586c0.42962,0.89776 0.82259,1.98469 1.17893,3.26077l-0.97411,0.65625c-0.11989,-0.45573 -0.22147,-0.81804 -0.30472,-1.08695l-0.37467,0.08203c-1.40541,0.31446 -2.85077,0.55599 -4.3361,0.7246l-0.27476,-1.33981c0.79926,-0.04101 1.62854,-0.10482 2.4878,-0.19141l0.04995,-0.00683v-2.40627h-2.07815v-3.91696h2.07815zM176.49868,179.73362h-1.14898v1.62008h1.14898zM177.5128,179.73362v1.62008h1.17393v-1.62008z"/><path d="M184.87614,175.1938v-0.58789h-3.12223v-0.97753h7.37339v0.97753h-3.18713v0.58789h4.13628v2.45409h-1.08401v-1.57227h-3.05227v2.65912h-1.06404v-2.65912h-2.99728v1.57227h-1.07402v-2.45409zM188.413,184.89393c0.50953,0.26432 1.14563,0.47395 1.90829,0.62891l-0.58448,1.1621c-1.06903,-0.25065 -1.94658,-0.68131 -2.63264,-1.29199c-0.68274,-0.61067 -1.21393,-1.36947 -1.59357,-2.27638h-1.10397v2.1055c0.73599,-0.14128 1.41869,-0.29166 2.04813,-0.45117l0.06994,1.01855c-1.1723,0.38281 -2.51276,0.71549 -4.02139,0.99804l-0.29474,-1.20308c0.52284,-0.07747 0.88085,-0.13216 1.07402,-0.16406l0.05995,-0.01367v-2.29005h-1.094c-0.04663,0.80205 -0.12323,1.44235 -0.22979,1.92086c-0.12655,0.57422 -0.3297,1.10969 -0.60946,1.60642l-0.88917,-1.00488c0.32637,-0.57877 0.52952,-1.25552 0.60946,-2.03025c0.0433,-0.41927 0.06494,-0.94108 0.06494,-1.56544v-2.89841h8.62244v0.90918h-7.54826v2.09866h7.97803v0.96386h-1.13401l0.63443,0.57422c-0.37634,0.42838 -0.82094,0.82941 -1.33383,1.20308zM187.63372,184.36757c0.47957,-0.44661 0.8609,-0.86361 1.14399,-1.25101h-2.18307c0.28641,0.5013 0.63277,0.9183 1.03908,1.25101zM182.31852,176.58147h2.12808v0.77246h-2.12808zM182.31852,177.8393h2.12808v0.78612h-2.12808zM186.36986,176.58147h2.19305v0.77246h-2.19305zM186.36986,177.8393h2.19305v0.78612h-2.19305zM182.86302,180.62832h6.21943v0.89551h-6.21943z"/><path d="M195.10658,175.1938v-0.58789h-3.12223v-0.97753h7.37339v0.97753h-3.18713v0.58789h4.13628v2.45409h-1.08401v-1.57227h-3.05227v2.65912h-1.06405v-2.65912h-2.99728v1.57227h-1.07402v-2.45409zM198.64345,184.89393c0.50953,0.26432 1.14562,0.47395 1.90828,0.62891l-0.58447,1.1621c-1.06903,-0.25065 -1.94658,-0.68131 -2.63265,-1.29199c-0.68274,-0.61067 -1.21392,-1.36947 -1.59356,-2.27638h-1.10397v2.1055c0.73599,-0.14128 1.41869,-0.29166 2.04813,-0.45117l0.06994,1.01855c-1.1723,0.38281 -2.51276,0.71549 -4.02139,0.99804l-0.29474,-1.20308c0.52284,-0.07747 0.88085,-0.13216 1.07402,-0.16406l0.05995,-0.01367v-2.29005h-1.09399c-0.04663,0.80205 -0.12323,1.44235 -0.22979,1.92086c-0.12655,0.57422 -0.3297,1.10969 -0.60946,1.60642l-0.88917,-1.00488c0.32637,-0.57877 0.52952,-1.25552 0.60946,-2.03025c0.0433,-0.41927 0.06494,-0.94108 0.06494,-1.56544v-2.89841h8.62244v0.90918h-7.54827v2.09866h7.97803v0.96386h-1.134l0.63443,0.57422c-0.37634,0.42838 -0.82094,0.82941 -1.33383,1.20308zM197.86418,184.36757c0.47957,-0.44661 0.8609,-0.86361 1.14398,-1.25101h-2.18306c0.28641,0.5013 0.63277,0.9183 1.03908,1.25101zM192.54897,176.58147h2.12808v0.77246h-2.12808zM192.54897,177.8393h2.12808v0.78612h-2.12808zM196.60031,176.58147h2.19305v0.77246h-2.19305zM196.60031,177.8393h2.19305v0.78612h-2.19305zM193.09347,180.62832h6.21943v0.89551h-6.21943z"/><path d="M206.68107,174.57901h3.91647v1.14843h-2.21801v1.13478h2.07815v1.10745h-2.07815v2.03708h-4.02139v-2.03708h-1.63856v1.2715c0,2.06441 -0.07993,3.69591 -0.23979,4.89451c-0.12323,0.91142 -0.32304,1.74311 -0.59946,2.49507l-0.90922,-0.98436c0.2531,-0.75196 0.42629,-1.67025 0.51953,-2.75486c0.08326,-0.95247 0.12489,-2.16925 0.12489,-3.65034v-4.66205h3.95142v-1.23051h1.11404zM202.71959,175.72745v1.13478h1.63856v-1.13478zM205.4222,175.72745v1.13478h1.8933v-1.13478zM205.4222,177.96967v1.05953h1.8933v-1.05953zM206.58116,185.1474c-0.96249,0.68359 -2.18473,1.20313 -3.66673,1.55861l-0.51953,-1.25783c1.3921,-0.22787 2.48278,-0.57648 3.27206,-1.04586c-0.67608,-0.66992 -1.25388,-1.46518 -1.73341,-2.38578h-0.68938v-1.18942h5.84972l0.52453,0.60156c-0.49622,1.04362 -1.20391,2.0257 -2.12309,2.94623c0.78928,0.43294 1.86499,0.75195 3.22714,0.95703l-0.58447,1.29199c-1.30552,-0.24153 -2.49113,-0.73371 -3.55683,-1.47653zM205.09749,182.01652c0.40297,0.64713 0.89254,1.21679 1.46869,1.70899c0.6494,-0.57422 1.15062,-1.14388 1.50364,-1.70899z"/><path d="M214.8739,175.37907h0.87919v4.01953h2.93737v1.20308h-2.93737v4.01952h-0.87919v-4.01952h-2.93737v-1.20308h2.93737z"/><path d="M225.78432,177.21102c0.23313,0.16406 0.50123,0.36002 0.8043,0.58789l-0.63443,0.7041h3.00734l0.5645,0.77246c-0.74934,1.54491 -1.49701,2.8141 -2.24297,3.80756l-1.01412,-0.81347c0.65607,-0.82034 1.18225,-1.63609 1.57858,-2.44725h-2.48779v5.35933c0,0.61979 -0.11157,1.01626 -0.33471,1.18942c-0.14986,0.11848 -0.42962,0.17773 -0.83925,0.17773c-0.53621,0 -1.12735,-0.04558 -1.77342,-0.13673l-0.24478,-1.52445c0.62279,0.13672 1.17563,0.20507 1.65853,0.20507c0.18317,0 0.29639,-0.04101 0.33969,-0.12304c0.0333,-0.06836 0.04996,-0.19369 0.04996,-0.37598v-4.77146h-4.18627v-1.31931h5.41512c-1.12566,-0.8841 -2.25132,-1.6315 -3.37698,-2.24222l0.8093,-0.88183c0.756,0.41471 1.42373,0.81802 2.00321,1.20991c0.51286,-0.47851 0.96246,-0.94792 1.34881,-1.40822h-5.34024v-1.29882h6.79388l0.61445,0.82031c-0.87253,0.96159 -1.71012,1.79783 -2.51277,2.50874z"/><path d="M232.09685,178.01728c-0.43295,1.08005 -0.93416,1.96416 -1.50364,2.65229l-0.57448,-1.27149c0.74602,-0.77473 1.37546,-1.82064 1.88832,-3.13771h-1.65355v-1.25784h1.84338v-1.65424h1.07402v1.65424h1.44373v1.25784h-1.44373v0.83398c0.59278,0.46484 1.12064,0.95701 1.58358,1.47653l-0.60445,1.20309c-0.31639,-0.48307 -0.64275,-0.91373 -0.9791,-1.29199v3.04197h-1.07402zM235.16409,181.29854c0.42628,0.55599 0.84591,1.22364 1.25888,2.00294l-0.88917,0.86816c-0.45959,-0.97069 -0.90421,-1.72721 -1.33383,-2.26955l0.70937,-0.67676v-7.38275h4.26615v7.458zM235.91841,174.96165v1.04587h2.223v-1.04587zM235.91841,177.06032v1.03223h2.223v-1.03223zM235.91841,179.13156v1.04587h2.223v-1.04587zM230.14857,185.48895c0.38299,-0.85677 0.68105,-1.90723 0.89416,-3.15137l1.03908,0.40332c-0.1865,1.46287 -0.50621,2.68648 -0.95913,3.67084zM232.88112,182.35124h1.09399v2.18064c0,0.28255 0.04996,0.45117 0.14986,0.50585c0.12655,0.06381 0.47624,0.09571 1.04906,0.09571c0.54619,0 0.91085,-0.02507 1.09399,-0.0752c0.13321,-0.04101 0.21814,-0.14583 0.25477,-0.31445c0.04997,-0.22787 0.08328,-0.64258 0.09991,-1.24417l1.10398,0.34863c-0.01331,0.67903 -0.04995,1.16438 -0.10991,1.45604c-0.08326,0.41471 -0.20648,0.69727 -0.36967,0.84766c-0.13988,0.13216 -0.34136,0.20963 -0.60445,0.23242c-0.54619,0.04558 -1.10735,0.06836 -1.68349,0.06836c-0.96914,0 -1.56028,-0.07747 -1.77342,-0.23242c-0.20315,-0.15039 -0.30473,-0.46939 -0.30473,-0.95702zM238.97068,186.01525c-0.40298,-1.33074 -0.85091,-2.45864 -1.34381,-3.38373l0.9142,-0.74511c0.54952,1.00257 1.01909,2.0849 1.40871,3.247z"/><path d="M244.62208,175.1938v-0.58789h-3.12223v-0.97753h7.3734v0.97753h-3.18713v0.58789h4.13628v2.45409h-1.08401v-1.57227h-3.05227v2.65912h-1.06404v-2.65912h-2.99728v1.57227h-1.07403v-2.45409zM248.15894,184.89393c0.50954,0.26432 1.14562,0.47395 1.90828,0.62891l-0.58448,1.1621c-1.06903,-0.25065 -1.94658,-0.68131 -2.63264,-1.29199c-0.68274,-0.61067 -1.21392,-1.36947 -1.59356,-2.27638h-1.10397v2.1055c0.73599,-0.14128 1.41869,-0.29166 2.04813,-0.45117l0.06996,1.01855c-1.1723,0.38281 -2.51276,0.71549 -4.02139,0.99804l-0.29473,-1.20308c0.52284,-0.07747 0.88086,-0.13216 1.07403,-0.16406l0.05998,-0.01367v-2.29005h-1.094c-0.04664,0.80205 -0.12324,1.44235 -0.22979,1.92086c-0.12655,0.57422 -0.3297,1.10969 -0.60946,1.60642l-0.88917,-1.00488c0.32638,-0.57877 0.52953,-1.25552 0.60946,-2.03025c0.04331,-0.41927 0.06497,-0.94108 0.06497,-1.56544v-2.89841h8.62244v0.90918h-7.54827v2.09866h7.97803v0.96386h-1.13401l0.63443,0.57422c-0.37633,0.42838 -0.82094,0.82941 -1.33382,1.20308zM247.37966,184.36757c0.47957,-0.44661 0.8609,-0.86361 1.14399,-1.25101h-2.18307c0.28641,0.5013 0.63277,0.9183 1.03908,1.25101zM242.06446,176.58147h2.12808v0.77246h-2.12808zM242.06446,177.8393h2.12808v0.78612h-2.12808zM246.11579,176.58147h2.19305v0.77246h-2.19305zM246.11579,177.8393h2.19305v0.78612h-2.19305zM242.60896,180.62832h6.21943v0.89551h-6.21943z"/><path d="M256.1943,174.57901h3.91647v1.14843h-2.21801v1.13478h2.07815v1.10745h-2.07815v2.03708h-4.02138v-2.03708h-1.63857v1.2715c0,2.06441 -0.07993,3.69591 -0.23979,4.89451c-0.12323,0.91142 -0.32305,1.74311 -0.59946,2.49507l-0.90922,-0.98436c0.2531,-0.75196 0.42628,-1.67025 0.51953,-2.75486c0.08326,-0.95247 0.12489,-2.16925 0.12489,-3.65034v-4.66205h3.9515v-1.23051h1.11396zM252.23282,175.72745v1.13478h1.63857v-1.13478zM254.93542,175.72745v1.13478h1.8933v-1.13478zM254.93542,177.96967v1.05953h1.8933v-1.05953zM256.09438,185.1474c-0.96248,0.68359 -2.18473,1.20313 -3.66673,1.55861l-0.51953,-1.25783c1.39209,-0.22787 2.48278,-0.57648 3.27206,-1.04586c-0.67608,-0.66992 -1.25388,-1.46518 -1.73341,-2.38578h-0.68938v-1.18942h5.8498l0.52453,0.60156c-0.49623,1.04362 -1.20392,2.0257 -2.12308,2.94623c0.78928,0.43294 1.865,0.75195 3.22714,0.95703l-0.58448,1.29199c-1.30552,-0.24153 -2.49113,-0.73371 -3.55683,-1.47653zM254.61072,182.01652c0.40297,0.64713 0.89254,1.21679 1.46869,1.70899c0.6494,-0.57422 1.15062,-1.14388 1.50364,-1.70899z"/></g><text transform="translate(262.0195,184.94893) scale(0.2406,0.2924)" font-size="40" xml:space="preserve" fill="#ffffff" stroke-width="1" stroke-linecap="butt" stroke-linejoin="miter" font-family="&quot;BIZ UDGothic&quot;" font-weight="normal" text-anchor="start"><tspan x="0" dy="0">(使用不可)</tspan></text></g></g></svg>